G75*
%MOIN*%
%OFA0B0*%
%FSLAX24Y24*%
%IPPOS*%
%LPD*%
%AMOC8*
5,1,8,0,0,1.08239X$1,22.5*
%
%ADD10C,0.0080*%
%ADD11R,0.0671X0.0237*%
%ADD12R,0.0257X0.0474*%
%ADD13R,0.0474X0.0513*%
%ADD14R,0.0513X0.0474*%
%ADD15R,0.0671X0.0592*%
%ADD16R,0.0592X0.0671*%
%ADD17R,0.0552X0.0946*%
%ADD18OC8,0.0780*%
%ADD19C,0.0680*%
%ADD20R,0.0395X0.0395*%
%ADD21R,0.1080X0.0580*%
%ADD22R,0.4440X0.0060*%
%ADD23R,0.0180X0.0060*%
%ADD24R,0.1140X0.0060*%
%ADD25R,0.0300X0.0060*%
%ADD26R,0.0540X0.0060*%
%ADD27R,0.0120X0.0060*%
%ADD28R,0.0420X0.0060*%
%ADD29R,0.0060X0.0060*%
%ADD30R,0.0480X0.0060*%
%ADD31R,0.1200X0.0060*%
%ADD32R,0.1440X0.0060*%
%ADD33R,0.0960X0.0060*%
%ADD34R,0.0900X0.0060*%
%ADD35R,0.1080X0.0060*%
%ADD36C,0.0456*%
%ADD37C,0.1740*%
D10*
X014780Y002128D02*
X014780Y002448D01*
X014993Y002448D01*
X015148Y002342D02*
X015201Y002342D01*
X015201Y002128D01*
X015148Y002128D02*
X015255Y002128D01*
X015447Y002181D02*
X015500Y002128D01*
X015447Y002181D02*
X015447Y002395D01*
X015394Y002342D02*
X015500Y002342D01*
X015639Y002342D02*
X015853Y002342D01*
X015639Y002128D01*
X015853Y002128D01*
X016007Y002181D02*
X016061Y002128D01*
X016168Y002128D01*
X016221Y002181D01*
X016221Y002235D01*
X016168Y002288D01*
X016061Y002288D01*
X016007Y002342D01*
X016007Y002395D01*
X016061Y002448D01*
X016168Y002448D01*
X016221Y002395D01*
X016376Y002448D02*
X016536Y002448D01*
X016589Y002395D01*
X016589Y002288D01*
X016536Y002235D01*
X016376Y002235D01*
X016376Y002128D02*
X016376Y002448D01*
X016744Y002342D02*
X016744Y002128D01*
X016744Y002288D02*
X016958Y002288D01*
X016958Y002342D02*
X016958Y002128D01*
X016958Y002342D02*
X016851Y002448D01*
X016744Y002342D01*
X017481Y002342D02*
X017587Y002448D01*
X017587Y002128D01*
X017481Y002128D02*
X017694Y002128D01*
X017849Y002128D02*
X017902Y002128D01*
X017902Y002181D01*
X017849Y002181D01*
X017849Y002128D01*
X018033Y002181D02*
X018247Y002395D01*
X018247Y002181D01*
X018193Y002128D01*
X018086Y002128D01*
X018033Y002181D01*
X018033Y002395D01*
X018086Y002448D01*
X018193Y002448D01*
X018247Y002395D01*
X015201Y002448D02*
X015201Y002502D01*
X014886Y002288D02*
X014780Y002288D01*
D11*
X007064Y003142D03*
X007064Y003398D03*
X007064Y003653D03*
X007064Y003909D03*
X007064Y004165D03*
X007064Y004421D03*
X007064Y004677D03*
X007064Y004933D03*
X007064Y005189D03*
X007064Y005445D03*
X007064Y005701D03*
X007064Y005957D03*
X007064Y006212D03*
X007064Y006468D03*
X004210Y006468D03*
X004210Y006212D03*
X004210Y005957D03*
X004210Y005701D03*
X004210Y005445D03*
X004210Y005189D03*
X004210Y004933D03*
X004210Y004677D03*
X004210Y004421D03*
X004210Y004165D03*
X004210Y003909D03*
X004210Y003653D03*
X004210Y003398D03*
X004210Y003142D03*
D12*
X015253Y009373D03*
X015509Y009373D03*
X015765Y009373D03*
X016021Y009373D03*
X016021Y010987D03*
X015765Y010987D03*
X015509Y010987D03*
X015253Y010987D03*
D13*
X012971Y011680D03*
X012302Y011680D03*
X009795Y010975D03*
X009126Y010975D03*
X006471Y012180D03*
X005802Y012180D03*
X009637Y006640D03*
X009637Y005970D03*
X009137Y004015D03*
X009137Y003345D03*
D14*
X012302Y002680D03*
X012971Y002680D03*
X012971Y004680D03*
X012302Y004680D03*
X007221Y008055D03*
X006552Y008055D03*
X004971Y008180D03*
X004302Y008180D03*
X001762Y011470D03*
X001762Y012140D03*
X014302Y012180D03*
X014971Y012180D03*
X016302Y012180D03*
X016971Y012180D03*
X017637Y010515D03*
X017637Y009845D03*
X014637Y014845D03*
X014637Y015515D03*
X014637Y016845D03*
X014637Y017515D03*
D15*
X012637Y017554D03*
X012637Y016806D03*
X012637Y015554D03*
X012637Y014806D03*
X012137Y006804D03*
X012137Y006056D03*
X011012Y004054D03*
X011012Y003306D03*
D16*
X007261Y010180D03*
X006513Y010180D03*
X005011Y010180D03*
X004263Y010180D03*
D17*
X004887Y014434D03*
X005887Y014434D03*
X006887Y014434D03*
X007887Y014434D03*
X008887Y014434D03*
X008887Y018326D03*
X007887Y018326D03*
X006887Y018326D03*
X005887Y018326D03*
X004887Y018326D03*
D18*
X001437Y001430D03*
X002437Y001430D03*
X002537Y002430D03*
X001537Y002430D03*
X001437Y003430D03*
X002437Y003430D03*
X002537Y004430D03*
X001537Y004430D03*
X001437Y005430D03*
X002437Y005430D03*
X002537Y006430D03*
X001537Y006430D03*
X019237Y006780D03*
X019337Y007780D03*
X019237Y008780D03*
X019337Y009780D03*
X019237Y010780D03*
X019337Y011780D03*
D19*
X001747Y014565D03*
X001747Y015565D03*
X001747Y016565D03*
D20*
X001737Y009875D03*
X001737Y009285D03*
D21*
X009100Y009797D03*
X011100Y008797D03*
X011100Y010797D03*
D22*
X016444Y005790D03*
X016444Y005730D03*
X016444Y005670D03*
X016444Y002910D03*
X016444Y002850D03*
X016444Y002790D03*
D23*
X016414Y002970D03*
X016414Y003030D03*
X016414Y003090D03*
X016414Y003150D03*
X016414Y003210D03*
X016414Y003270D03*
X014614Y003270D03*
X014614Y003210D03*
X014614Y003150D03*
X014614Y003090D03*
X014614Y003030D03*
X014614Y002970D03*
X016414Y005310D03*
X016414Y005370D03*
X016414Y005430D03*
X016414Y005490D03*
X016414Y005550D03*
X016414Y005610D03*
D24*
X015514Y005370D03*
X017614Y004410D03*
X017614Y004170D03*
X015514Y003210D03*
D25*
X017254Y003210D03*
X018274Y003210D03*
X018274Y005370D03*
X017254Y005370D03*
D26*
X015874Y003510D03*
X015874Y003270D03*
X015154Y003270D03*
X015154Y003510D03*
D27*
X016084Y004170D03*
X016084Y004410D03*
X017104Y005070D03*
X017104Y005310D03*
X017404Y005310D03*
X017404Y005070D03*
X018424Y004410D03*
X018424Y004170D03*
X017404Y003510D03*
X017404Y003270D03*
X017104Y003270D03*
X017104Y003510D03*
X014944Y005070D03*
X014944Y005310D03*
D28*
X015094Y004950D03*
X015094Y004890D03*
X015094Y004830D03*
X015094Y004770D03*
X015094Y004710D03*
X015094Y004650D03*
X015094Y004590D03*
X015094Y004530D03*
X015934Y004050D03*
X015934Y003990D03*
X015934Y003930D03*
X015934Y003870D03*
X015934Y003810D03*
X015934Y003750D03*
X015934Y003690D03*
X015934Y003630D03*
X017254Y003630D03*
X017254Y003690D03*
X017254Y003750D03*
X017254Y003810D03*
X017254Y003870D03*
X017254Y003930D03*
X017254Y003990D03*
X017254Y004050D03*
X017254Y004530D03*
X017254Y004590D03*
X017254Y004650D03*
X017254Y004710D03*
X017254Y004770D03*
X017254Y004830D03*
X017254Y004890D03*
X017254Y004950D03*
X017254Y005010D03*
X018274Y005010D03*
X018274Y005070D03*
X018274Y005130D03*
X018274Y005190D03*
X018274Y005250D03*
X018274Y005310D03*
X018274Y004950D03*
X018274Y004890D03*
X018274Y004830D03*
X018274Y004770D03*
X018274Y004710D03*
X018274Y004650D03*
X018274Y004590D03*
X018274Y004530D03*
X018274Y004050D03*
X018274Y003990D03*
X018274Y003930D03*
X018274Y003870D03*
X018274Y003810D03*
X018274Y003750D03*
X018274Y003690D03*
X018274Y003630D03*
X018274Y003570D03*
X018274Y003510D03*
X018274Y003450D03*
X018274Y003390D03*
X018274Y003330D03*
X018274Y003270D03*
X017254Y003570D03*
D29*
X017434Y003450D03*
X017434Y003390D03*
X017434Y003330D03*
X017074Y003330D03*
X017074Y003390D03*
X017074Y003450D03*
X016474Y003330D03*
X016354Y003330D03*
X016114Y004230D03*
X016114Y004290D03*
X016114Y004350D03*
X016354Y005250D03*
X016474Y005250D03*
X017074Y005250D03*
X017074Y005190D03*
X017074Y005130D03*
X017434Y005130D03*
X017434Y005190D03*
X017434Y005250D03*
X018454Y004350D03*
X018454Y004290D03*
X018454Y004230D03*
X014914Y005130D03*
X014914Y005190D03*
X014914Y005250D03*
X014674Y003330D03*
X014554Y003330D03*
D30*
X015124Y003330D03*
X015124Y003390D03*
X015124Y003450D03*
X015904Y003450D03*
X015904Y003390D03*
X015904Y003330D03*
D31*
X015544Y003570D03*
X015544Y004110D03*
X015484Y004470D03*
X015484Y005010D03*
D32*
X017764Y004470D03*
X017764Y004110D03*
D33*
X015664Y005070D03*
X015664Y005310D03*
X015364Y004410D03*
X015364Y004170D03*
D34*
X015334Y004230D03*
X015334Y004290D03*
X015334Y004350D03*
X015694Y005130D03*
X015694Y005190D03*
X015694Y005250D03*
D35*
X017584Y004350D03*
X017584Y004290D03*
X017584Y004230D03*
D36*
X018267Y004301D03*
X017259Y005201D03*
X015927Y004301D03*
X015504Y003410D03*
X017241Y003392D03*
X015072Y005192D03*
X013137Y003680D03*
X014137Y011055D03*
X014637Y016180D03*
X003137Y008180D03*
D37*
X018151Y017784D03*
M02*
