%
M48
M72
T01C0.0236
T02C0.0400
T03C0.1260
%
T01
X3137Y8180
X13137Y3680
X15072Y5192
X15927Y4301
X15504Y3410
X17241Y3392
X18267Y4301
X17259Y5201
X14677Y8850
X17440Y11622
X13413Y16630
T02
X1437Y1430
X2437Y1430
X2537Y2430
X1537Y2430
X1437Y3430
X2437Y3430
X2537Y4430
X1537Y4430
X1437Y5430
X2437Y5430
X2537Y6430
X1537Y6430
X1747Y14565
X1747Y15565
X1747Y16565
X19237Y10780
X19337Y9780
X19237Y8780
X19337Y7780
X19237Y6780
X19337Y11780
T03
X18151Y17784
M30
