G75*
%MOIN*%
%OFA0B0*%
%FSLAX24Y24*%
%IPPOS*%
%LPD*%
%AMOC8*
5,1,8,0,0,1.08239X$1,22.5*
%
%ADD10OC8,0.0700*%
%ADD11C,0.0600*%
%ADD12C,0.0160*%
%ADD13C,0.0376*%
%ADD14C,0.1660*%
D10*
X001437Y001430D03*
X002437Y001430D03*
X002537Y002430D03*
X001537Y002430D03*
X001437Y003430D03*
X002437Y003430D03*
X002537Y004430D03*
X001537Y004430D03*
X001437Y005430D03*
X002437Y005430D03*
X002537Y006430D03*
X001537Y006430D03*
X019237Y006780D03*
X019337Y007780D03*
X019237Y008780D03*
X019337Y009780D03*
X019237Y010780D03*
X019337Y011780D03*
D11*
X001747Y014565D03*
X001747Y015565D03*
X001747Y016565D03*
D12*
X000957Y001141D02*
X001111Y000873D01*
X001330Y000655D01*
X001598Y000500D01*
X001896Y000420D01*
X002051Y000410D01*
X018940Y000410D01*
X019071Y000420D01*
X019320Y000501D01*
X019532Y000655D01*
X019686Y000867D01*
X019766Y001115D01*
X019777Y001246D01*
X019777Y007471D01*
X019556Y007250D01*
X019460Y007250D01*
X019727Y006983D01*
X019727Y006577D01*
X019440Y006290D01*
X019034Y006290D01*
X018747Y006577D01*
X018747Y006983D01*
X019034Y007270D01*
X019097Y007270D01*
X018807Y007560D01*
X018807Y007760D01*
X019317Y007760D01*
X019317Y007800D01*
X018807Y007800D01*
X018807Y008000D01*
X019057Y008250D01*
X019017Y008250D01*
X018707Y008560D01*
X018707Y008760D01*
X019217Y008760D01*
X019217Y008800D01*
X018707Y008800D01*
X018707Y009000D01*
X019017Y009310D01*
X019114Y009310D01*
X018847Y009577D01*
X018847Y009983D01*
X019134Y010270D01*
X019540Y010270D01*
X019777Y010033D01*
X019777Y011527D01*
X019540Y011290D01*
X019134Y011290D01*
X018847Y011577D01*
X018847Y011983D01*
X019134Y012270D01*
X019540Y012270D01*
X019777Y012033D01*
X019777Y018353D01*
X019767Y018496D01*
X019694Y018772D01*
X019551Y019019D01*
X019349Y019220D01*
X019102Y019363D01*
X018827Y019437D01*
X018684Y019446D01*
X002217Y019446D01*
X002040Y019435D01*
X001700Y019343D01*
X001395Y019167D01*
X001146Y018918D01*
X000969Y018613D01*
X000878Y018272D01*
X000878Y018272D01*
X000867Y018096D01*
X000867Y001594D01*
X000877Y001440D01*
X000907Y001328D01*
X000907Y001410D01*
X001417Y001410D01*
X001457Y001410D01*
X001457Y001450D01*
X002417Y001450D01*
X002417Y001410D01*
X002457Y001410D01*
X002457Y001450D01*
X002967Y001450D01*
X002967Y001650D01*
X002676Y001940D01*
X002740Y001940D01*
X003027Y002227D01*
X003027Y002633D01*
X002740Y002920D01*
X002334Y002920D01*
X002047Y002633D01*
X002047Y002227D01*
X002314Y001960D01*
X002217Y001960D01*
X001937Y001680D01*
X001676Y001940D01*
X001740Y001940D01*
X002027Y002227D01*
X002027Y002633D01*
X001740Y002920D01*
X001334Y002920D01*
X001047Y002633D01*
X001047Y002227D01*
X001314Y001960D01*
X001217Y001960D01*
X000907Y001650D01*
X000907Y001450D01*
X001417Y001450D01*
X001417Y001410D01*
X001417Y000900D01*
X001217Y000900D01*
X000950Y001167D01*
X000957Y001141D01*
X000963Y001131D02*
X000986Y001131D01*
X001054Y000973D02*
X001145Y000973D01*
X001171Y000814D02*
X019647Y000814D01*
X019720Y000973D02*
X002729Y000973D01*
X002656Y000900D02*
X002967Y001210D01*
X002967Y001410D01*
X002457Y001410D01*
X002457Y000900D01*
X002656Y000900D01*
X002457Y000973D02*
X002417Y000973D01*
X002417Y000900D02*
X002417Y001410D01*
X001907Y001410D01*
X001457Y001410D01*
X001457Y000900D01*
X001656Y000900D01*
X001937Y001180D01*
X002217Y000900D01*
X002417Y000900D01*
X002417Y001131D02*
X002457Y001131D01*
X002457Y001290D02*
X002417Y001290D01*
X002417Y001448D02*
X001457Y001448D01*
X001417Y001448D02*
X000876Y001448D01*
X000867Y001607D02*
X000907Y001607D01*
X000867Y001765D02*
X001022Y001765D01*
X000867Y001924D02*
X001181Y001924D01*
X001192Y002082D02*
X000867Y002082D01*
X000867Y002241D02*
X001047Y002241D01*
X001047Y002399D02*
X000867Y002399D01*
X000867Y002558D02*
X001047Y002558D01*
X001130Y002716D02*
X000867Y002716D01*
X000867Y002875D02*
X001288Y002875D01*
X001234Y002940D02*
X001640Y002940D01*
X001927Y003227D01*
X001927Y003633D01*
X001640Y003920D01*
X001234Y003920D01*
X000947Y003633D01*
X000947Y003227D01*
X001234Y002940D01*
X001141Y003033D02*
X000867Y003033D01*
X000867Y003192D02*
X000982Y003192D01*
X000947Y003350D02*
X000867Y003350D01*
X000867Y003509D02*
X000947Y003509D01*
X000981Y003667D02*
X000867Y003667D01*
X000867Y003826D02*
X001139Y003826D01*
X001290Y003984D02*
X000867Y003984D01*
X000867Y004143D02*
X001131Y004143D01*
X001047Y004227D02*
X001334Y003940D01*
X001740Y003940D01*
X002027Y004227D01*
X002027Y004633D01*
X001740Y004920D01*
X001334Y004920D01*
X001047Y004633D01*
X001047Y004227D01*
X001047Y004301D02*
X000867Y004301D01*
X000867Y004460D02*
X001047Y004460D01*
X001047Y004618D02*
X000867Y004618D01*
X000867Y004777D02*
X001190Y004777D01*
X001234Y004940D02*
X001640Y004940D01*
X001927Y005227D01*
X001927Y005633D01*
X001640Y005920D01*
X001234Y005920D01*
X000947Y005633D01*
X000947Y005227D01*
X001234Y004940D01*
X001080Y005094D02*
X000867Y005094D01*
X000867Y005252D02*
X000947Y005252D01*
X000947Y005411D02*
X000867Y005411D01*
X000867Y005569D02*
X000947Y005569D01*
X000867Y005728D02*
X001041Y005728D01*
X001200Y005886D02*
X000867Y005886D01*
X000867Y006045D02*
X001229Y006045D01*
X001334Y005940D02*
X001047Y006227D01*
X001047Y006633D01*
X001334Y006920D01*
X001740Y006920D01*
X002027Y006633D01*
X002027Y006227D01*
X001740Y005940D01*
X001334Y005940D01*
X001674Y005886D02*
X002200Y005886D01*
X002234Y005920D02*
X001947Y005633D01*
X001947Y005227D01*
X002234Y004940D01*
X002640Y004940D01*
X002927Y005227D01*
X002927Y005633D01*
X002640Y005920D01*
X002234Y005920D01*
X002334Y005940D02*
X002740Y005940D01*
X003027Y006227D01*
X003027Y006633D01*
X002740Y006920D01*
X002334Y006920D01*
X002047Y006633D01*
X002047Y006227D01*
X002334Y005940D01*
X002229Y006045D02*
X001844Y006045D01*
X002003Y006203D02*
X002071Y006203D01*
X002047Y006362D02*
X002027Y006362D01*
X002027Y006520D02*
X002047Y006520D01*
X002092Y006679D02*
X001981Y006679D01*
X001823Y006837D02*
X002251Y006837D01*
X002823Y006837D02*
X018747Y006837D01*
X018747Y006679D02*
X002981Y006679D01*
X003027Y006520D02*
X018804Y006520D01*
X018962Y006362D02*
X003027Y006362D01*
X003003Y006203D02*
X019777Y006203D01*
X019777Y006045D02*
X002844Y006045D01*
X002674Y005886D02*
X019777Y005886D01*
X019777Y005728D02*
X002832Y005728D01*
X002927Y005569D02*
X019777Y005569D01*
X019777Y005411D02*
X002927Y005411D01*
X002927Y005252D02*
X019777Y005252D01*
X019777Y005094D02*
X002793Y005094D01*
X002740Y004920D02*
X002334Y004920D01*
X002047Y004633D01*
X002047Y004227D01*
X002334Y003940D01*
X002740Y003940D01*
X003027Y004227D01*
X003027Y004633D01*
X002740Y004920D01*
X002883Y004777D02*
X019777Y004777D01*
X019777Y004935D02*
X000867Y004935D01*
X001793Y005094D02*
X002080Y005094D01*
X001947Y005252D02*
X001927Y005252D01*
X001927Y005411D02*
X001947Y005411D01*
X001947Y005569D02*
X001927Y005569D01*
X001832Y005728D02*
X002041Y005728D01*
X002190Y004777D02*
X001883Y004777D01*
X002027Y004618D02*
X002047Y004618D01*
X002047Y004460D02*
X002027Y004460D01*
X002027Y004301D02*
X002047Y004301D01*
X002131Y004143D02*
X001942Y004143D01*
X001784Y003984D02*
X002290Y003984D01*
X002234Y003920D02*
X001947Y003633D01*
X001947Y003227D01*
X002234Y002940D01*
X002640Y002940D01*
X002927Y003227D01*
X002927Y003633D01*
X002640Y003920D01*
X002234Y003920D01*
X002139Y003826D02*
X001734Y003826D01*
X001893Y003667D02*
X001981Y003667D01*
X001947Y003509D02*
X001927Y003509D01*
X001927Y003350D02*
X001947Y003350D01*
X001982Y003192D02*
X001891Y003192D01*
X001733Y003033D02*
X002141Y003033D01*
X002288Y002875D02*
X001785Y002875D01*
X001944Y002716D02*
X002130Y002716D01*
X002047Y002558D02*
X002027Y002558D01*
X002027Y002399D02*
X002047Y002399D01*
X002047Y002241D02*
X002027Y002241D01*
X001882Y002082D02*
X002192Y002082D01*
X002181Y001924D02*
X001693Y001924D01*
X001851Y001765D02*
X002022Y001765D01*
X002457Y001448D02*
X019777Y001448D01*
X019777Y001290D02*
X002967Y001290D01*
X002887Y001131D02*
X019768Y001131D01*
X019532Y000656D02*
X001329Y000656D01*
X001609Y000497D02*
X019307Y000497D01*
X019777Y001607D02*
X002967Y001607D01*
X002851Y001765D02*
X019777Y001765D01*
X019777Y001924D02*
X002693Y001924D01*
X002882Y002082D02*
X019777Y002082D01*
X019777Y002241D02*
X003027Y002241D01*
X003027Y002399D02*
X019777Y002399D01*
X019777Y002558D02*
X003027Y002558D01*
X002944Y002716D02*
X019777Y002716D01*
X019777Y002875D02*
X002785Y002875D01*
X002733Y003033D02*
X019777Y003033D01*
X019777Y003192D02*
X002891Y003192D01*
X002927Y003350D02*
X019777Y003350D01*
X019777Y003509D02*
X002927Y003509D01*
X002893Y003667D02*
X019777Y003667D01*
X019777Y003826D02*
X002734Y003826D01*
X002784Y003984D02*
X019777Y003984D01*
X019777Y004143D02*
X002942Y004143D01*
X003027Y004301D02*
X019777Y004301D01*
X019777Y004460D02*
X003027Y004460D01*
X003027Y004618D02*
X019777Y004618D01*
X019777Y006362D02*
X019511Y006362D01*
X019670Y006520D02*
X019777Y006520D01*
X019777Y006679D02*
X019727Y006679D01*
X019727Y006837D02*
X019777Y006837D01*
X019777Y006996D02*
X019714Y006996D01*
X019777Y007154D02*
X019556Y007154D01*
X019619Y007313D02*
X019777Y007313D01*
X019317Y007788D02*
X000867Y007788D01*
X000867Y007630D02*
X018807Y007630D01*
X018896Y007471D02*
X000867Y007471D01*
X000867Y007313D02*
X019055Y007313D01*
X018918Y007154D02*
X000867Y007154D01*
X000867Y006996D02*
X018759Y006996D01*
X018807Y007947D02*
X000867Y007947D01*
X000867Y008105D02*
X018912Y008105D01*
X019004Y008264D02*
X000867Y008264D01*
X000867Y008422D02*
X018845Y008422D01*
X018707Y008581D02*
X000867Y008581D01*
X000867Y008739D02*
X018707Y008739D01*
X018707Y008898D02*
X000867Y008898D01*
X000867Y009056D02*
X018763Y009056D01*
X018922Y009215D02*
X000867Y009215D01*
X000867Y009373D02*
X019051Y009373D01*
X018892Y009532D02*
X000867Y009532D01*
X000867Y009690D02*
X018847Y009690D01*
X018847Y009849D02*
X000867Y009849D01*
X000867Y010007D02*
X018871Y010007D01*
X019029Y010166D02*
X000867Y010166D01*
X000867Y010324D02*
X019000Y010324D01*
X019034Y010290D02*
X019440Y010290D01*
X019727Y010577D01*
X019727Y010983D01*
X019440Y011270D01*
X019034Y011270D01*
X018747Y010983D01*
X018747Y010577D01*
X019034Y010290D01*
X018841Y010483D02*
X000867Y010483D01*
X000867Y010641D02*
X018747Y010641D01*
X018747Y010800D02*
X000867Y010800D01*
X000867Y010958D02*
X018747Y010958D01*
X018880Y011117D02*
X000867Y011117D01*
X000867Y011275D02*
X019777Y011275D01*
X019777Y011117D02*
X019593Y011117D01*
X019727Y010958D02*
X019777Y010958D01*
X019777Y010800D02*
X019727Y010800D01*
X019727Y010641D02*
X019777Y010641D01*
X019777Y010483D02*
X019632Y010483D01*
X019777Y010324D02*
X019474Y010324D01*
X019644Y010166D02*
X019777Y010166D01*
X019777Y009527D02*
X019777Y008089D01*
X019556Y008310D01*
X019516Y008310D01*
X019767Y008560D01*
X019767Y008760D01*
X019257Y008760D01*
X019257Y008800D01*
X019767Y008800D01*
X019767Y009000D01*
X019476Y009290D01*
X019540Y009290D01*
X019777Y009527D01*
X019777Y009373D02*
X019623Y009373D01*
X019552Y009215D02*
X019777Y009215D01*
X019777Y009056D02*
X019710Y009056D01*
X019767Y008898D02*
X019777Y008898D01*
X019767Y008739D02*
X019777Y008739D01*
X019767Y008581D02*
X019777Y008581D01*
X019777Y008422D02*
X019628Y008422D01*
X019603Y008264D02*
X019777Y008264D01*
X019761Y008105D02*
X019777Y008105D01*
X019777Y011434D02*
X019683Y011434D01*
X019742Y012068D02*
X019777Y012068D01*
X019777Y012226D02*
X019584Y012226D01*
X019777Y012385D02*
X000867Y012385D01*
X000867Y012543D02*
X019777Y012543D01*
X019777Y012702D02*
X000867Y012702D01*
X000867Y012860D02*
X019777Y012860D01*
X019777Y013019D02*
X000867Y013019D01*
X000867Y013177D02*
X019777Y013177D01*
X019777Y013336D02*
X000867Y013336D01*
X000867Y013494D02*
X019777Y013494D01*
X019777Y013653D02*
X000867Y013653D01*
X000867Y013811D02*
X019777Y013811D01*
X019777Y013970D02*
X000867Y013970D01*
X000867Y014128D02*
X001652Y014128D01*
X001659Y014125D02*
X001834Y014125D01*
X001996Y014192D01*
X002120Y014316D01*
X002187Y014477D01*
X002187Y014653D01*
X002120Y014814D01*
X001996Y014938D01*
X001834Y015005D01*
X001659Y015005D01*
X001497Y014938D01*
X001374Y014814D01*
X001307Y014653D01*
X001307Y014477D01*
X001374Y014316D01*
X001497Y014192D01*
X001659Y014125D01*
X001841Y014128D02*
X019777Y014128D01*
X019777Y014287D02*
X002090Y014287D01*
X002173Y014445D02*
X019777Y014445D01*
X019777Y014604D02*
X002187Y014604D01*
X002141Y014762D02*
X019777Y014762D01*
X019777Y014921D02*
X002013Y014921D01*
X001931Y015120D02*
X001859Y015097D01*
X001784Y015085D01*
X001767Y015085D01*
X001767Y015545D01*
X001767Y015585D01*
X002227Y015585D01*
X002227Y015603D01*
X002215Y015677D01*
X002191Y015749D01*
X002157Y015817D01*
X002113Y015878D01*
X002059Y015931D01*
X001998Y015976D01*
X001931Y016010D01*
X001859Y016033D01*
X001784Y016045D01*
X001767Y016045D01*
X001767Y015585D01*
X001727Y015585D01*
X001727Y016045D01*
X001709Y016045D01*
X001634Y016033D01*
X001562Y016010D01*
X001495Y015976D01*
X001434Y015931D01*
X001381Y015878D01*
X001336Y015817D01*
X001302Y015749D01*
X001278Y015677D01*
X001267Y015603D01*
X001267Y015585D01*
X001727Y015585D01*
X001727Y015545D01*
X001767Y015545D01*
X002227Y015545D01*
X002227Y015527D01*
X002215Y015453D01*
X002191Y015381D01*
X002157Y015313D01*
X002113Y015252D01*
X002059Y015199D01*
X001998Y015154D01*
X001931Y015120D01*
X001767Y015238D02*
X001727Y015238D01*
X001727Y015085D02*
X001727Y015545D01*
X001267Y015545D01*
X001267Y015527D01*
X001278Y015453D01*
X001302Y015381D01*
X001336Y015313D01*
X001381Y015252D01*
X001434Y015199D01*
X001495Y015154D01*
X001562Y015120D01*
X001634Y015097D01*
X001709Y015085D01*
X001727Y015085D01*
X001480Y014921D02*
X000867Y014921D01*
X000867Y015079D02*
X019777Y015079D01*
X019777Y015238D02*
X002098Y015238D01*
X002196Y015396D02*
X019777Y015396D01*
X019777Y015555D02*
X001767Y015555D01*
X001727Y015555D02*
X000867Y015555D01*
X000867Y015713D02*
X001290Y015713D01*
X001376Y015872D02*
X000867Y015872D01*
X000867Y016030D02*
X001625Y016030D01*
X001634Y016097D02*
X001709Y016085D01*
X001727Y016085D01*
X001727Y016545D01*
X001767Y016545D01*
X001767Y016585D01*
X002227Y016585D01*
X002227Y016603D01*
X002215Y016677D01*
X002191Y016749D01*
X002157Y016817D01*
X002113Y016878D01*
X002059Y016931D01*
X001998Y016976D01*
X001931Y017010D01*
X001859Y017033D01*
X001784Y017045D01*
X001767Y017045D01*
X001767Y016585D01*
X001727Y016585D01*
X001727Y017045D01*
X001709Y017045D01*
X001634Y017033D01*
X001562Y017010D01*
X001495Y016976D01*
X001434Y016931D01*
X001381Y016878D01*
X001336Y016817D01*
X001302Y016749D01*
X001278Y016677D01*
X001267Y016603D01*
X001267Y016585D01*
X001727Y016585D01*
X001727Y016545D01*
X001267Y016545D01*
X001267Y016527D01*
X001278Y016453D01*
X001302Y016381D01*
X001336Y016313D01*
X001381Y016252D01*
X001434Y016199D01*
X001495Y016154D01*
X001562Y016120D01*
X001634Y016097D01*
X001727Y016030D02*
X001767Y016030D01*
X001767Y016085D02*
X001784Y016085D01*
X001859Y016097D01*
X001931Y016120D01*
X001998Y016154D01*
X002059Y016199D01*
X002113Y016252D01*
X002157Y016313D01*
X002191Y016381D01*
X002215Y016453D01*
X002227Y016527D01*
X002227Y016545D01*
X001767Y016545D01*
X001767Y016085D01*
X001767Y016189D02*
X001727Y016189D01*
X001727Y016347D02*
X001767Y016347D01*
X001767Y016506D02*
X001727Y016506D01*
X001727Y016664D02*
X001767Y016664D01*
X001767Y016823D02*
X001727Y016823D01*
X001727Y016981D02*
X001767Y016981D01*
X001987Y016981D02*
X017582Y016981D01*
X017601Y016962D02*
X017958Y016814D01*
X018344Y016814D01*
X018700Y016962D01*
X018973Y017235D01*
X019121Y017591D01*
X019121Y017977D01*
X018973Y018333D01*
X018700Y018606D01*
X018344Y018754D01*
X017958Y018754D01*
X017601Y018606D01*
X017328Y018333D01*
X017181Y017977D01*
X017181Y017591D01*
X017328Y017235D01*
X017601Y016962D01*
X017423Y017140D02*
X000867Y017140D01*
X000867Y017298D02*
X017302Y017298D01*
X017236Y017457D02*
X000867Y017457D01*
X000867Y017615D02*
X017181Y017615D01*
X017181Y017774D02*
X000867Y017774D01*
X000867Y017932D02*
X017181Y017932D01*
X017228Y018091D02*
X000867Y018091D01*
X000877Y018249D02*
X017293Y018249D01*
X017403Y018408D02*
X000914Y018408D01*
X000957Y018566D02*
X017561Y018566D01*
X017887Y018725D02*
X001034Y018725D01*
X001125Y018883D02*
X019629Y018883D01*
X019706Y018725D02*
X018415Y018725D01*
X018740Y018566D02*
X019749Y018566D01*
X019773Y018408D02*
X018899Y018408D01*
X019008Y018249D02*
X019777Y018249D01*
X019777Y018091D02*
X019074Y018091D01*
X019121Y017932D02*
X019777Y017932D01*
X019777Y017774D02*
X019121Y017774D01*
X019121Y017615D02*
X019777Y017615D01*
X019777Y017457D02*
X019065Y017457D01*
X018999Y017298D02*
X019777Y017298D01*
X019777Y017140D02*
X018878Y017140D01*
X018719Y016981D02*
X019777Y016981D01*
X019777Y016823D02*
X018364Y016823D01*
X017937Y016823D02*
X002153Y016823D01*
X002217Y016664D02*
X019777Y016664D01*
X019777Y016506D02*
X002223Y016506D01*
X002174Y016347D02*
X019777Y016347D01*
X019777Y016189D02*
X002045Y016189D01*
X001869Y016030D02*
X019777Y016030D01*
X019777Y015872D02*
X002117Y015872D01*
X002203Y015713D02*
X019777Y015713D01*
X019528Y019042D02*
X001269Y019042D01*
X001452Y019200D02*
X019370Y019200D01*
X019110Y019359D02*
X001757Y019359D01*
X001506Y016981D02*
X000867Y016981D01*
X000867Y016823D02*
X001340Y016823D01*
X001276Y016664D02*
X000867Y016664D01*
X000867Y016506D02*
X001270Y016506D01*
X001319Y016347D02*
X000867Y016347D01*
X000867Y016189D02*
X001448Y016189D01*
X001727Y015872D02*
X001767Y015872D01*
X001767Y015713D02*
X001727Y015713D01*
X001727Y015396D02*
X001767Y015396D01*
X001395Y015238D02*
X000867Y015238D01*
X000867Y015396D02*
X001297Y015396D01*
X001352Y014762D02*
X000867Y014762D01*
X000867Y014604D02*
X001307Y014604D01*
X001320Y014445D02*
X000867Y014445D01*
X000867Y014287D02*
X001403Y014287D01*
X000867Y012226D02*
X019090Y012226D01*
X018931Y012068D02*
X000867Y012068D01*
X000867Y011909D02*
X018847Y011909D01*
X018847Y011751D02*
X000867Y011751D01*
X000867Y011592D02*
X018847Y011592D01*
X018990Y011434D02*
X000867Y011434D01*
X000867Y006837D02*
X001251Y006837D01*
X001092Y006679D02*
X000867Y006679D01*
X000867Y006520D02*
X001047Y006520D01*
X001047Y006362D02*
X000867Y006362D01*
X000867Y006203D02*
X001071Y006203D01*
X001417Y001290D02*
X001457Y001290D01*
X001457Y001131D02*
X001417Y001131D01*
X001417Y000973D02*
X001457Y000973D01*
X001729Y000973D02*
X002145Y000973D01*
X001986Y001131D02*
X001887Y001131D01*
D13*
X003137Y008180D03*
X013137Y003680D03*
X015072Y005192D03*
X015927Y004301D03*
X015504Y003410D03*
X017241Y003392D03*
X018267Y004301D03*
X017259Y005201D03*
X014137Y011055D03*
X014637Y016180D03*
D14*
X018151Y017784D03*
M02*
