G75*
%MOIN*%
%OFA0B0*%
%FSLAX24Y24*%
%IPPOS*%
%LPD*%
%AMOC8*
5,1,8,0,0,1.08239X$1,22.5*
%
%ADD10C,0.0000*%
%ADD11C,0.0040*%
%ADD12C,0.0050*%
%ADD13C,0.0030*%
%ADD14C,0.0020*%
%ADD15C,0.0080*%
%ADD16R,0.0510X0.0140*%
%ADD17R,0.2047X0.0384*%
%ADD18C,0.0157*%
%ADD19R,0.0118X0.0374*%
%ADD20C,0.0060*%
%ADD21R,0.0160X0.0340*%
%ADD22R,0.0340X0.0160*%
%ADD23R,0.0197X0.0374*%
%ADD24R,0.0571X0.0295*%
%ADD25R,0.0374X0.0197*%
%ADD26R,0.0295X0.0571*%
%ADD27R,0.0220X0.0264*%
%ADD28R,0.0200X0.0200*%
%ADD29C,0.0004*%
%ADD30C,0.0002*%
%ADD31R,0.0079X0.0059*%
%ADD32R,0.0020X0.0020*%
%ADD33R,0.0020X0.0148*%
%ADD34R,0.0079X0.0118*%
%ADD35R,0.0354X0.0089*%
%ADD36R,0.0079X0.0197*%
%ADD37R,0.0217X0.0089*%
%ADD38R,0.0039X0.0039*%
%ADD39R,0.0098X0.0098*%
%ADD40R,0.0264X0.0220*%
%ADD41R,0.0180X0.0060*%
%ADD42R,0.0060X0.0060*%
%ADD43R,0.0900X0.0060*%
%ADD44R,0.0960X0.0060*%
%ADD45R,0.0120X0.0060*%
%ADD46R,0.0240X0.0060*%
%ADD47R,0.0600X0.0060*%
%ADD48R,0.0540X0.0060*%
%ADD49R,0.0480X0.0060*%
%ADD50R,0.0840X0.0060*%
%ADD51R,0.1200X0.0060*%
%ADD52R,0.0780X0.0060*%
%ADD53R,0.0360X0.0060*%
%ADD54R,0.0300X0.0060*%
%ADD55R,0.0720X0.0060*%
%ADD56R,0.1740X0.0060*%
%ADD57R,0.1440X0.0060*%
D10*
X000637Y001594D02*
X000637Y018096D01*
X000639Y018174D01*
X000645Y018251D01*
X000654Y018328D01*
X000667Y018404D01*
X000684Y018480D01*
X000705Y018555D01*
X000729Y018628D01*
X000757Y018701D01*
X000789Y018772D01*
X000824Y018841D01*
X000862Y018908D01*
X000903Y018974D01*
X000948Y019037D01*
X000996Y019098D01*
X001046Y019157D01*
X001100Y019213D01*
X001156Y019267D01*
X001215Y019317D01*
X001276Y019365D01*
X001339Y019410D01*
X001405Y019451D01*
X001472Y019489D01*
X001541Y019524D01*
X001612Y019556D01*
X001685Y019584D01*
X001758Y019608D01*
X001833Y019629D01*
X001909Y019646D01*
X001985Y019659D01*
X002062Y019668D01*
X002139Y019674D01*
X002217Y019676D01*
X018684Y019676D01*
X018756Y019674D01*
X018827Y019668D01*
X018898Y019659D01*
X018968Y019645D01*
X019038Y019628D01*
X019106Y019607D01*
X019174Y019582D01*
X019240Y019554D01*
X019304Y019522D01*
X019366Y019487D01*
X019426Y019448D01*
X019485Y019406D01*
X019540Y019361D01*
X019594Y019313D01*
X019644Y019263D01*
X019692Y019209D01*
X019737Y019154D01*
X019779Y019095D01*
X019818Y019035D01*
X019853Y018973D01*
X019885Y018909D01*
X019913Y018843D01*
X019938Y018775D01*
X019959Y018707D01*
X019976Y018637D01*
X019990Y018567D01*
X019999Y018496D01*
X020005Y018425D01*
X020007Y018353D01*
X020007Y001246D01*
X020006Y001246D02*
X020004Y001182D01*
X019998Y001118D01*
X019989Y001054D01*
X019975Y000991D01*
X019958Y000929D01*
X019937Y000868D01*
X019912Y000808D01*
X019884Y000751D01*
X019852Y000695D01*
X019817Y000640D01*
X019779Y000589D01*
X019738Y000539D01*
X019694Y000492D01*
X019647Y000448D01*
X019597Y000407D01*
X019546Y000369D01*
X019491Y000334D01*
X019435Y000302D01*
X019378Y000274D01*
X019318Y000249D01*
X019257Y000228D01*
X019195Y000211D01*
X019132Y000197D01*
X019068Y000188D01*
X019004Y000182D01*
X018940Y000180D01*
X002051Y000180D01*
X001977Y000182D01*
X001903Y000188D01*
X001830Y000197D01*
X001757Y000211D01*
X001685Y000228D01*
X001614Y000249D01*
X001544Y000274D01*
X001476Y000302D01*
X001409Y000334D01*
X001344Y000369D01*
X001281Y000408D01*
X001220Y000450D01*
X001161Y000495D01*
X001105Y000543D01*
X001051Y000594D01*
X001000Y000648D01*
X000952Y000704D01*
X000907Y000763D01*
X000865Y000824D01*
X000826Y000887D01*
X000791Y000952D01*
X000759Y001019D01*
X000731Y001087D01*
X000706Y001157D01*
X000685Y001228D01*
X000668Y001300D01*
X000654Y001373D01*
X000645Y001446D01*
X000639Y001520D01*
X000637Y001594D01*
D11*
X003180Y002408D02*
X003256Y002408D01*
X003410Y002408D02*
X003410Y002331D01*
X003410Y002408D02*
X003717Y002408D01*
X003717Y002331D02*
X003717Y002485D01*
X003640Y002638D02*
X003486Y002638D01*
X003410Y002715D01*
X003410Y002945D01*
X003717Y002945D02*
X003717Y002715D01*
X003640Y002638D01*
X003717Y002178D02*
X003717Y001948D01*
X003640Y001871D01*
X003486Y001871D01*
X003410Y001948D01*
X003410Y002178D01*
X003793Y002178D01*
X003870Y002101D01*
X003870Y002024D01*
X003640Y001717D02*
X003486Y001717D01*
X003410Y001641D01*
X003410Y001487D01*
X003486Y001410D01*
X003640Y001410D01*
X003717Y001487D01*
X003717Y001641D01*
X003640Y001717D01*
X003717Y001257D02*
X003717Y000950D01*
X003256Y000950D01*
X005389Y002370D02*
X005542Y002524D01*
X005849Y002524D01*
X005849Y002677D02*
X005849Y002907D01*
X005772Y002984D01*
X005465Y002984D01*
X005389Y002907D01*
X005389Y002677D01*
X005849Y002677D01*
X005619Y002524D02*
X005619Y002217D01*
X005542Y002217D02*
X005389Y002370D01*
X005542Y002217D02*
X005849Y002217D01*
X005772Y003138D02*
X005849Y003214D01*
X005849Y003368D01*
X005772Y003445D01*
X005465Y003445D01*
X005389Y003368D01*
X005389Y003214D01*
X005465Y003138D01*
X005542Y003138D01*
X005619Y003214D01*
X005619Y003445D01*
X005465Y003598D02*
X005389Y003675D01*
X005389Y003828D01*
X005465Y003905D01*
X005542Y003905D01*
X005849Y003598D01*
X005849Y003905D01*
X005772Y004058D02*
X005465Y004365D01*
X005772Y004365D01*
X005849Y004289D01*
X005849Y004135D01*
X005772Y004058D01*
X005465Y004058D01*
X005389Y004135D01*
X005389Y004289D01*
X005465Y004365D01*
X005465Y004519D02*
X005389Y004596D01*
X005389Y004749D01*
X005465Y004826D01*
X005772Y004519D01*
X005849Y004596D01*
X005849Y004749D01*
X005772Y004826D01*
X005465Y004826D01*
X005542Y004979D02*
X005389Y005133D01*
X005542Y005286D01*
X005849Y005286D01*
X005849Y005440D02*
X005389Y005440D01*
X005389Y005670D01*
X005465Y005747D01*
X005619Y005747D01*
X005695Y005670D01*
X005695Y005440D01*
X005695Y005593D02*
X005849Y005747D01*
X005849Y005900D02*
X005772Y005900D01*
X005465Y006207D01*
X005389Y006207D01*
X005389Y005900D01*
X005849Y005900D02*
X005849Y006207D01*
X005389Y006981D02*
X005082Y006981D01*
X005235Y006981D02*
X005235Y007441D01*
X005082Y007288D01*
X004928Y007441D02*
X004928Y007058D01*
X004851Y006981D01*
X004698Y006981D01*
X004621Y007058D01*
X004621Y007441D01*
X004600Y007450D02*
X004600Y007910D01*
X004446Y007757D01*
X004293Y007834D02*
X004216Y007910D01*
X004063Y007910D01*
X003986Y007834D01*
X003986Y007527D01*
X004063Y007450D01*
X004216Y007450D01*
X004293Y007527D01*
X004446Y007450D02*
X004753Y007450D01*
X004777Y008010D02*
X004497Y008010D01*
X004497Y008345D02*
X004777Y008345D01*
X004446Y008450D02*
X004446Y008910D01*
X004753Y008910D01*
X004600Y008680D02*
X004446Y008680D01*
X004293Y008680D02*
X004293Y008527D01*
X004216Y008450D01*
X004139Y008450D01*
X004063Y008527D01*
X004063Y008373D01*
X003986Y008297D01*
X003832Y008450D02*
X003525Y008450D01*
X003372Y008450D02*
X003295Y008450D01*
X003295Y008527D01*
X003372Y008527D01*
X003372Y008450D01*
X003679Y008450D02*
X003679Y008910D01*
X003525Y008757D01*
X003852Y009200D02*
X004006Y009200D01*
X004082Y009277D01*
X004236Y009200D02*
X004543Y009200D01*
X004696Y009200D02*
X005003Y009200D01*
X004850Y009200D02*
X004850Y009660D01*
X004696Y009507D01*
X004389Y009660D02*
X004389Y009200D01*
X004236Y009507D02*
X004389Y009660D01*
X004487Y009920D02*
X004787Y009920D01*
X004777Y010440D02*
X004487Y010440D01*
X004313Y010623D02*
X004236Y010547D01*
X004313Y010623D02*
X004313Y010777D01*
X004389Y010700D01*
X004466Y010700D01*
X004543Y010777D01*
X004543Y010930D01*
X004696Y010930D02*
X004850Y010930D01*
X004696Y010700D02*
X004696Y011160D01*
X005003Y011160D01*
X005282Y010805D02*
X005589Y010805D01*
X005435Y010959D02*
X005435Y010652D01*
X005907Y010805D02*
X006214Y010805D01*
X006407Y010777D02*
X006407Y011084D01*
X006483Y011160D01*
X006637Y011160D01*
X006714Y011084D01*
X006867Y011007D02*
X007021Y011160D01*
X007021Y010700D01*
X007174Y010700D02*
X006867Y010700D01*
X006714Y010777D02*
X006637Y010700D01*
X006483Y010700D01*
X006407Y010777D01*
X006060Y010652D02*
X006060Y010959D01*
X006060Y011450D02*
X006060Y011910D01*
X005907Y011757D01*
X005907Y011450D02*
X006214Y011450D01*
X006367Y011527D02*
X006674Y011834D01*
X006674Y011527D01*
X006597Y011450D01*
X006444Y011450D01*
X006367Y011527D01*
X006367Y011834D01*
X006444Y011910D01*
X006597Y011910D01*
X006674Y011834D01*
X006827Y011834D02*
X006904Y011910D01*
X007058Y011910D01*
X007134Y011834D01*
X007134Y011680D01*
X007058Y011603D01*
X007058Y011450D01*
X007134Y011450D01*
X006904Y011450D02*
X006904Y011603D01*
X006827Y011680D01*
X006827Y011834D01*
X006827Y011450D02*
X006904Y011450D01*
X007327Y011084D02*
X007404Y011160D01*
X007558Y011160D01*
X007634Y011084D01*
X007634Y011007D01*
X007327Y010700D01*
X007634Y010700D01*
X007037Y010440D02*
X006737Y010440D01*
X006747Y009920D02*
X007037Y009920D01*
X007097Y009660D02*
X006944Y009660D01*
X006867Y009584D01*
X006867Y009277D01*
X007174Y009584D01*
X007174Y009277D01*
X007097Y009200D01*
X006944Y009200D01*
X006867Y009277D01*
X006714Y009200D02*
X006407Y009200D01*
X006560Y009200D02*
X006560Y009660D01*
X006407Y009507D01*
X006733Y008785D02*
X006657Y008709D01*
X006657Y008402D01*
X006733Y008325D01*
X006887Y008325D01*
X006964Y008402D01*
X007117Y008325D02*
X007424Y008632D01*
X007424Y008709D01*
X007347Y008785D01*
X007194Y008785D01*
X007117Y008709D01*
X006964Y008709D02*
X006887Y008785D01*
X006733Y008785D01*
X006747Y008225D02*
X007027Y008225D01*
X007117Y008325D02*
X007424Y008325D01*
X007027Y007890D02*
X006747Y007890D01*
X006887Y007632D02*
X007040Y007785D01*
X007040Y007325D01*
X006887Y007325D02*
X007194Y007325D01*
X007347Y007172D02*
X007424Y007248D01*
X007424Y007402D01*
X007501Y007325D01*
X007577Y007325D01*
X007654Y007402D01*
X007654Y007555D01*
X007808Y007555D02*
X007961Y007555D01*
X007808Y007325D02*
X007808Y007785D01*
X008115Y007785D01*
X007424Y007555D02*
X007424Y007402D01*
X006733Y007402D02*
X006733Y007325D01*
X006657Y007325D01*
X006657Y007402D01*
X006733Y007402D01*
X007327Y009047D02*
X007404Y009123D01*
X007404Y009277D01*
X007481Y009200D01*
X007558Y009200D01*
X007634Y009277D01*
X007634Y009430D01*
X007788Y009430D02*
X007941Y009430D01*
X007788Y009200D02*
X007788Y009660D01*
X008095Y009660D01*
X008349Y010245D02*
X008349Y010705D01*
X008580Y010705D01*
X008656Y010629D01*
X008656Y010475D01*
X008580Y010398D01*
X008349Y010398D01*
X008503Y010398D02*
X008656Y010245D01*
X008810Y010245D02*
X008810Y010705D01*
X009117Y010705D01*
X009270Y010552D02*
X009424Y010705D01*
X009424Y010245D01*
X009577Y010245D02*
X009270Y010245D01*
X008963Y010475D02*
X008810Y010475D01*
X008887Y011245D02*
X008887Y011705D01*
X009117Y011552D02*
X008887Y011398D01*
X009117Y011245D01*
X009270Y011245D02*
X009347Y011245D01*
X009347Y011398D01*
X009270Y011475D01*
X009270Y011629D01*
X009347Y011705D01*
X009500Y011705D01*
X009577Y011629D01*
X009577Y011475D01*
X009500Y011398D01*
X009500Y011245D01*
X009577Y011245D01*
X009589Y011536D02*
X009896Y011536D01*
X009743Y011536D02*
X009743Y011996D01*
X009589Y011842D01*
X010050Y011919D02*
X010050Y011612D01*
X010356Y011919D01*
X010356Y011612D01*
X010280Y011536D01*
X010126Y011536D01*
X010050Y011612D01*
X010050Y011919D02*
X010126Y011996D01*
X010280Y011996D01*
X010356Y011919D01*
X010510Y011996D02*
X010510Y011536D01*
X010510Y011689D02*
X010740Y011842D01*
X010894Y011766D02*
X010970Y011689D01*
X010970Y011536D01*
X010894Y011536D01*
X010740Y011536D02*
X010510Y011689D01*
X010894Y011766D02*
X010894Y011919D01*
X010970Y011996D01*
X011124Y011996D01*
X011200Y011919D01*
X011200Y011766D01*
X011124Y011689D01*
X011124Y011536D01*
X011200Y011536D01*
X011219Y011950D02*
X011219Y012410D01*
X011065Y012257D01*
X011065Y011950D02*
X011372Y011950D01*
X011525Y012027D02*
X011832Y012334D01*
X011832Y012027D01*
X011756Y011950D01*
X011602Y011950D01*
X011525Y012027D01*
X011525Y012334D01*
X011602Y012410D01*
X011756Y012410D01*
X011832Y012334D01*
X011986Y012334D02*
X012063Y012410D01*
X012216Y012410D01*
X012293Y012334D01*
X011986Y012027D01*
X012063Y011950D01*
X012216Y011950D01*
X012293Y012027D01*
X012293Y012334D01*
X012446Y012334D02*
X012523Y012410D01*
X012676Y012410D01*
X012753Y012334D01*
X012753Y012180D01*
X012676Y012103D01*
X012676Y011950D01*
X012753Y011950D01*
X012523Y011950D02*
X012523Y012103D01*
X012446Y012180D01*
X012446Y012334D01*
X012446Y011950D02*
X012523Y011950D01*
X012523Y011410D02*
X012446Y011334D01*
X012446Y011027D01*
X012523Y010950D01*
X012676Y010950D01*
X012753Y011027D01*
X012753Y011180D01*
X012600Y011180D01*
X012753Y011334D02*
X012676Y011410D01*
X012523Y011410D01*
X012293Y011334D02*
X012293Y011180D01*
X012216Y011103D01*
X011986Y011103D01*
X011986Y010950D02*
X011986Y011410D01*
X012216Y011410D01*
X012293Y011334D01*
X012139Y011103D02*
X012293Y010950D01*
X011986Y012027D02*
X011986Y012334D01*
X013295Y012450D02*
X013372Y012450D01*
X013372Y012527D01*
X013295Y012527D01*
X013295Y012450D01*
X013525Y012450D02*
X013832Y012450D01*
X013679Y012450D02*
X013679Y012910D01*
X013525Y012757D01*
X014063Y012680D02*
X014063Y012527D01*
X014063Y012373D01*
X013986Y012297D01*
X014139Y012450D02*
X014216Y012450D01*
X014293Y012527D01*
X014293Y012680D01*
X014446Y012680D02*
X014600Y012680D01*
X014446Y012450D02*
X014446Y012910D01*
X014753Y012910D01*
X015295Y012527D02*
X015372Y012527D01*
X015372Y012450D01*
X015295Y012450D01*
X015295Y012527D01*
X015525Y012450D02*
X015832Y012450D01*
X015679Y012450D02*
X015679Y012910D01*
X015525Y012757D01*
X016063Y012680D02*
X016063Y012527D01*
X016063Y012373D01*
X015986Y012297D01*
X016139Y012450D02*
X016216Y012450D01*
X016293Y012527D01*
X016293Y012680D01*
X016446Y012680D02*
X016600Y012680D01*
X016446Y012450D02*
X016446Y012910D01*
X016753Y012910D01*
X016777Y012345D02*
X016497Y012345D01*
X016497Y012010D02*
X016777Y012010D01*
X016676Y011910D02*
X016523Y011910D01*
X016446Y011834D01*
X016446Y011757D01*
X016523Y011680D01*
X016676Y011680D01*
X016753Y011603D01*
X016753Y011527D01*
X016676Y011450D01*
X016523Y011450D01*
X016446Y011527D01*
X016446Y011603D01*
X016523Y011680D01*
X016676Y011680D02*
X016753Y011757D01*
X016753Y011834D01*
X016676Y011910D01*
X016293Y011834D02*
X016216Y011910D01*
X016063Y011910D01*
X015986Y011834D01*
X015986Y011527D01*
X016063Y011450D01*
X016216Y011450D01*
X016293Y011527D01*
X016139Y012450D02*
X016063Y012527D01*
X014777Y012345D02*
X014497Y012345D01*
X014139Y012450D02*
X014063Y012527D01*
X014497Y012010D02*
X014777Y012010D01*
X014753Y011910D02*
X014753Y011834D01*
X014446Y011527D01*
X014446Y011450D01*
X014293Y011527D02*
X014216Y011450D01*
X014063Y011450D01*
X013986Y011527D01*
X013986Y011834D01*
X014063Y011910D01*
X014216Y011910D01*
X014293Y011834D01*
X014446Y011910D02*
X014753Y011910D01*
X014367Y013455D02*
X014060Y013762D01*
X013983Y013762D01*
X013906Y013685D01*
X013906Y013532D01*
X013983Y013455D01*
X014367Y013455D02*
X014367Y013762D01*
X014367Y013915D02*
X014290Y013915D01*
X014290Y013992D01*
X014367Y013992D01*
X014367Y013915D01*
X014136Y014146D02*
X014136Y014452D01*
X014213Y014606D02*
X014060Y014836D01*
X014136Y014990D02*
X013983Y014990D01*
X013906Y015066D01*
X013906Y015220D01*
X013983Y015297D01*
X014136Y015297D01*
X014213Y015220D01*
X014367Y015220D01*
X014367Y015297D01*
X014367Y015066D02*
X014213Y015066D01*
X014136Y014990D01*
X014367Y014990D02*
X014367Y015066D01*
X014367Y014836D02*
X014213Y014606D01*
X014367Y014606D02*
X013906Y014606D01*
X013906Y014376D02*
X014136Y014146D01*
X014367Y014376D02*
X013906Y014376D01*
X013617Y014700D02*
X013617Y015007D01*
X013617Y014853D02*
X013156Y014853D01*
X013310Y014700D01*
X013233Y015160D02*
X013156Y015237D01*
X013156Y015391D01*
X013233Y015467D01*
X013540Y015160D01*
X013617Y015237D01*
X013617Y015391D01*
X013540Y015467D01*
X013233Y015467D01*
X013233Y015160D02*
X013540Y015160D01*
X013770Y015621D02*
X013693Y015698D01*
X013540Y015698D01*
X013617Y015774D01*
X013617Y015851D01*
X013540Y015928D01*
X013386Y015928D01*
X013386Y016081D02*
X013386Y016235D01*
X013233Y016319D02*
X013540Y016319D01*
X013617Y016396D01*
X013617Y016549D01*
X013540Y016626D01*
X013617Y016779D02*
X013617Y017086D01*
X013617Y016933D02*
X013156Y016933D01*
X013310Y016779D01*
X013233Y016626D02*
X013156Y016549D01*
X013156Y016396D01*
X013233Y016319D01*
X013156Y016388D02*
X013156Y016081D01*
X013617Y016081D01*
X013540Y015698D02*
X013386Y015698D01*
X012897Y015330D02*
X012897Y015040D01*
X012377Y015030D02*
X012377Y015330D01*
X012117Y015314D02*
X011656Y015314D01*
X011810Y015160D01*
X011733Y015007D02*
X011656Y014930D01*
X011656Y014777D01*
X011733Y014700D01*
X012040Y014700D01*
X012117Y014777D01*
X012117Y014930D01*
X012040Y015007D01*
X012117Y015160D02*
X012117Y015467D01*
X012185Y015527D02*
X012185Y015834D01*
X012117Y015851D02*
X012117Y015698D01*
X012040Y015621D01*
X012032Y015680D02*
X012339Y015680D01*
X012117Y015851D02*
X012040Y015928D01*
X011886Y015928D01*
X011810Y015851D01*
X011810Y015774D01*
X011886Y015621D01*
X011656Y015621D01*
X011656Y015928D01*
X011656Y016012D02*
X012117Y016012D01*
X012117Y016165D02*
X012117Y015858D01*
X011810Y015858D02*
X011656Y016012D01*
X011733Y016319D02*
X011656Y016396D01*
X011656Y016549D01*
X011733Y016626D01*
X012040Y016319D01*
X012117Y016396D01*
X012117Y016549D01*
X012040Y016626D01*
X011733Y016626D01*
X011886Y016856D02*
X012040Y016856D01*
X012193Y016856D01*
X012270Y016779D01*
X012117Y016933D02*
X012117Y017009D01*
X012040Y017086D01*
X011886Y017086D01*
X011886Y017240D02*
X011886Y017393D01*
X011656Y017240D02*
X011656Y017547D01*
X011656Y017240D02*
X012117Y017240D01*
X012377Y017320D02*
X012377Y017030D01*
X012117Y016933D02*
X012040Y016856D01*
X012040Y016319D02*
X011733Y016319D01*
X010585Y016240D02*
X010125Y016240D01*
X010125Y016393D02*
X010125Y016086D01*
X010278Y015933D02*
X010125Y015780D01*
X010278Y015626D01*
X010585Y015626D01*
X010432Y015473D02*
X010125Y015473D01*
X010355Y015626D02*
X010355Y015933D01*
X010278Y015933D02*
X010585Y015933D01*
X010432Y015473D02*
X010585Y015319D01*
X010432Y015166D01*
X010125Y015166D01*
X010278Y016547D02*
X010125Y016700D01*
X010585Y016700D01*
X010585Y016547D02*
X010585Y016854D01*
X010355Y017007D02*
X010355Y017314D01*
X010278Y017468D02*
X010355Y017544D01*
X010355Y017698D01*
X010432Y017775D01*
X010508Y017775D01*
X010585Y017698D01*
X010585Y017544D01*
X010508Y017468D01*
X010278Y017468D02*
X010202Y017468D01*
X010125Y017544D01*
X010125Y017698D01*
X010202Y017775D01*
X010125Y017928D02*
X010278Y018082D01*
X010125Y018235D01*
X010585Y018235D01*
X010585Y017928D02*
X010125Y017928D01*
X010125Y018388D02*
X010125Y018695D01*
X010125Y018542D02*
X010585Y018542D01*
X012032Y018055D02*
X012339Y018055D01*
X012185Y018209D02*
X012185Y017902D01*
X012897Y017330D02*
X012897Y017030D01*
X013233Y017393D02*
X013386Y017240D01*
X013386Y017470D01*
X013463Y017547D01*
X013540Y017547D01*
X013617Y017470D01*
X013617Y017316D01*
X013540Y017240D01*
X013386Y017240D01*
X013233Y017393D02*
X013156Y017547D01*
X013906Y017564D02*
X014367Y017564D01*
X014367Y017717D02*
X014367Y017410D01*
X014367Y017257D02*
X014213Y017103D01*
X014213Y017180D02*
X014213Y016950D01*
X014367Y016950D02*
X013906Y016950D01*
X013906Y017180D01*
X013983Y017257D01*
X014136Y017257D01*
X014213Y017180D01*
X014060Y017410D02*
X013906Y017564D01*
X014906Y017871D02*
X015136Y017641D01*
X015136Y017948D01*
X015213Y018101D02*
X015060Y018331D01*
X015136Y018485D02*
X014983Y018485D01*
X014906Y018561D01*
X014906Y018715D01*
X014983Y018792D01*
X015136Y018792D01*
X015213Y018715D01*
X015367Y018715D01*
X015367Y018792D01*
X015367Y018561D02*
X015213Y018561D01*
X015136Y018485D01*
X015367Y018485D02*
X015367Y018561D01*
X015367Y018331D02*
X015213Y018101D01*
X015367Y018101D02*
X014906Y018101D01*
X014906Y017871D02*
X015367Y017871D01*
X015367Y017487D02*
X015367Y017410D01*
X015290Y017410D01*
X015290Y017487D01*
X015367Y017487D01*
X015367Y017257D02*
X015367Y016950D01*
X015060Y017257D01*
X014983Y017257D01*
X014906Y017180D01*
X014906Y017027D01*
X014983Y016950D01*
X014983Y015297D02*
X014906Y015220D01*
X014906Y015066D01*
X014983Y014990D01*
X014983Y014836D02*
X014906Y014759D01*
X014906Y014529D01*
X015367Y014529D01*
X015213Y014529D02*
X015213Y014759D01*
X015136Y014836D01*
X014983Y014836D01*
X015213Y014683D02*
X015367Y014836D01*
X015367Y014990D02*
X015060Y015297D01*
X014983Y015297D01*
X015367Y015297D02*
X015367Y014990D01*
X018286Y012147D02*
X018286Y011840D01*
X018367Y010717D02*
X018367Y010641D01*
X018213Y010641D01*
X018136Y010717D01*
X017983Y010717D01*
X017906Y010641D01*
X017906Y010487D01*
X017983Y010410D01*
X018136Y010410D01*
X018213Y010487D01*
X018367Y010487D01*
X018367Y010410D01*
X018367Y010257D02*
X018367Y009950D01*
X018367Y010103D02*
X017906Y010103D01*
X018060Y009950D01*
X017367Y009950D02*
X016906Y009950D01*
X016906Y010180D01*
X016983Y010257D01*
X017136Y010257D01*
X017213Y010180D01*
X017213Y009950D01*
X017213Y010103D02*
X017367Y010257D01*
X017213Y010410D02*
X017367Y010564D01*
X017213Y010717D01*
X016906Y010717D01*
X016906Y010410D02*
X017213Y010410D01*
X013117Y007331D02*
X012656Y007331D01*
X012656Y007638D01*
X012886Y007485D02*
X012886Y007331D01*
X012886Y007178D02*
X013040Y007178D01*
X013117Y007101D01*
X013117Y007024D01*
X013040Y006948D01*
X013193Y006948D01*
X013270Y006871D01*
X013040Y006948D02*
X012886Y006948D01*
X012733Y006717D02*
X013040Y006410D01*
X013117Y006487D01*
X013117Y006641D01*
X013040Y006717D01*
X012733Y006717D01*
X012656Y006641D01*
X012656Y006487D01*
X012733Y006410D01*
X013040Y006410D01*
X013117Y006257D02*
X013117Y005950D01*
X013117Y006103D02*
X012656Y006103D01*
X012810Y005950D01*
X012397Y006290D02*
X012397Y006580D01*
X011877Y006580D02*
X011877Y006280D01*
X011685Y005959D02*
X011685Y005652D01*
X011532Y005805D02*
X011839Y005805D01*
X011617Y006027D02*
X011617Y006180D01*
X011540Y006257D01*
X011617Y006410D02*
X011617Y006717D01*
X011617Y006564D02*
X011156Y006564D01*
X011310Y006410D01*
X011233Y006257D02*
X011156Y006180D01*
X011156Y006027D01*
X011233Y005950D01*
X011540Y005950D01*
X011617Y006027D01*
X011386Y006871D02*
X011386Y007178D01*
X011156Y007101D02*
X011386Y006871D01*
X011617Y007101D02*
X011156Y007101D01*
X010894Y007598D02*
X010894Y008059D01*
X011200Y008059D01*
X011047Y007829D02*
X010894Y007829D01*
X010740Y007829D02*
X010740Y007982D01*
X010663Y008059D01*
X010433Y008059D01*
X010433Y007598D01*
X010433Y007752D02*
X010663Y007752D01*
X010740Y007829D01*
X010587Y007752D02*
X010740Y007598D01*
X010367Y007226D02*
X009906Y007226D01*
X009906Y007533D01*
X010136Y007379D02*
X010136Y007226D01*
X010136Y007073D02*
X010290Y007073D01*
X010367Y006996D01*
X010367Y006919D01*
X010290Y006842D01*
X010443Y006842D01*
X010520Y006766D01*
X010367Y006612D02*
X010367Y006305D01*
X010367Y006152D02*
X010367Y006075D01*
X010290Y006075D01*
X010290Y006152D01*
X010367Y006152D01*
X010060Y006305D02*
X009906Y006459D01*
X010367Y006459D01*
X010290Y006842D02*
X010136Y006842D01*
X009802Y006445D02*
X009802Y006165D01*
X009467Y006165D02*
X009467Y006445D01*
X009367Y006305D02*
X009290Y006382D01*
X009367Y006305D02*
X009367Y006152D01*
X009290Y006075D01*
X008983Y006075D01*
X008906Y006152D01*
X008906Y006305D01*
X008983Y006382D01*
X008983Y006535D02*
X008906Y006612D01*
X008906Y006766D01*
X008983Y006842D01*
X009060Y006842D01*
X009136Y006766D01*
X009213Y006842D01*
X009290Y006842D01*
X009367Y006766D01*
X009367Y006612D01*
X009290Y006535D01*
X009136Y006689D02*
X009136Y006766D01*
X011619Y008470D02*
X012080Y008470D01*
X012080Y008317D02*
X012080Y008624D01*
X011773Y008317D02*
X011619Y008470D01*
X008733Y011245D02*
X008426Y011245D01*
X008580Y011245D02*
X008580Y011705D01*
X008426Y011552D01*
X006674Y012680D02*
X006367Y012680D01*
X006597Y012910D01*
X006597Y012450D01*
X006214Y012450D02*
X006060Y012603D01*
X006137Y012603D02*
X005907Y012603D01*
X005907Y012450D02*
X005907Y012910D01*
X006137Y012910D01*
X006214Y012834D01*
X006214Y012680D01*
X006137Y012603D01*
X004214Y013900D02*
X003907Y013900D01*
X004060Y013900D02*
X004060Y014360D01*
X003907Y014207D01*
X003471Y015466D02*
X003088Y015466D01*
X003088Y015773D02*
X003471Y015773D01*
X003548Y015696D01*
X003548Y015542D01*
X003471Y015466D01*
X003471Y015926D02*
X003548Y016003D01*
X003548Y016156D01*
X003471Y016233D01*
X003395Y016233D01*
X003318Y016156D01*
X003318Y016080D01*
X003318Y016156D02*
X003241Y016233D01*
X003165Y016233D01*
X003088Y016156D01*
X003088Y016003D01*
X003165Y015926D01*
X000977Y016011D02*
X000823Y016164D01*
X000516Y016164D01*
X000516Y016318D02*
X000516Y016471D01*
X000516Y016394D02*
X000977Y016394D01*
X000977Y016318D02*
X000977Y016471D01*
X000977Y016625D02*
X000516Y016625D01*
X000977Y016932D01*
X000516Y016932D01*
X000977Y016011D02*
X000823Y015857D01*
X000516Y015857D01*
X002108Y013263D02*
X002031Y013186D01*
X002031Y013033D01*
X002108Y012956D01*
X002261Y012956D01*
X002338Y013033D01*
X002492Y013033D01*
X002492Y012956D01*
X002415Y012803D02*
X002108Y012803D01*
X002415Y012496D01*
X002492Y012573D01*
X002492Y012726D01*
X002415Y012803D01*
X002108Y012803D02*
X002031Y012726D01*
X002031Y012573D01*
X002108Y012496D01*
X002415Y012496D01*
X002415Y012342D02*
X002492Y012266D01*
X002492Y012112D01*
X002415Y012035D01*
X002261Y012035D02*
X002185Y012189D01*
X002185Y012266D01*
X002261Y012342D01*
X002415Y012342D01*
X002261Y012035D02*
X002031Y012035D01*
X002031Y012342D01*
X001492Y012266D02*
X001492Y012112D01*
X001415Y012035D01*
X001492Y011882D02*
X001338Y011728D01*
X001338Y011805D02*
X001338Y011575D01*
X001492Y011575D02*
X001031Y011575D01*
X001031Y011805D01*
X001108Y011882D01*
X001261Y011882D01*
X001338Y011805D01*
X001108Y012035D02*
X001031Y012112D01*
X001031Y012266D01*
X001108Y012342D01*
X001185Y012342D01*
X001261Y012266D01*
X001338Y012342D01*
X001415Y012342D01*
X001492Y012266D01*
X001261Y012266D02*
X001261Y012189D01*
X002031Y011728D02*
X002492Y011728D01*
X002492Y011575D02*
X002492Y011882D01*
X002185Y011575D02*
X002031Y011728D01*
X003315Y011007D02*
X003469Y011160D01*
X003469Y010700D01*
X003622Y010700D02*
X003315Y010700D01*
X003775Y010777D02*
X003852Y010700D01*
X004006Y010700D01*
X004082Y010777D01*
X004082Y011084D01*
X003775Y010777D01*
X003775Y011084D01*
X003852Y011160D01*
X004006Y011160D01*
X004082Y011084D01*
X004313Y010930D02*
X004313Y010777D01*
X004006Y009660D02*
X003852Y009660D01*
X003775Y009584D01*
X003775Y009277D01*
X003852Y009200D01*
X004082Y009584D02*
X004006Y009660D01*
X004063Y008680D02*
X004063Y008527D01*
X002467Y008565D02*
X002467Y008258D01*
X002006Y008258D01*
X002006Y008719D02*
X002467Y008719D01*
X002467Y009026D01*
X002467Y009179D02*
X002467Y009409D01*
X002390Y009486D01*
X002083Y009486D01*
X002006Y009409D01*
X002006Y009179D01*
X002467Y009179D01*
X002236Y008872D02*
X002236Y008719D01*
X002006Y008719D02*
X002006Y009026D01*
X001894Y009432D02*
X001894Y009718D01*
X002006Y009793D02*
X002467Y009793D01*
X002467Y009640D02*
X002467Y009947D01*
X002160Y009640D02*
X002006Y009793D01*
X001579Y009718D02*
X001579Y009442D01*
X001467Y009409D02*
X001390Y009486D01*
X001083Y009486D01*
X001006Y009409D01*
X001006Y009179D01*
X001467Y009179D01*
X001467Y009409D01*
X001467Y009640D02*
X001467Y009947D01*
X001467Y009793D02*
X001006Y009793D01*
X001160Y009640D01*
X001006Y009026D02*
X001006Y008719D01*
X001467Y008719D01*
X001467Y009026D01*
X001236Y008872D02*
X001236Y008719D01*
X001467Y008565D02*
X001467Y008258D01*
X001006Y008258D01*
X003410Y006858D02*
X003410Y006782D01*
X003563Y006628D01*
X003410Y006628D02*
X003717Y006628D01*
X003563Y006475D02*
X003486Y006475D01*
X003410Y006398D01*
X003410Y006245D01*
X003486Y006168D01*
X003640Y006168D01*
X003717Y006245D01*
X003717Y006398D01*
X003563Y006475D02*
X003563Y006168D01*
X003410Y006014D02*
X003717Y005707D01*
X003717Y006014D01*
X003410Y006014D02*
X003410Y005707D01*
X003410Y005554D02*
X003793Y005554D01*
X003870Y005477D01*
X003870Y005400D01*
X003717Y005324D02*
X003717Y005554D01*
X003717Y005324D02*
X003640Y005247D01*
X003410Y005247D01*
X003256Y005017D02*
X003717Y005017D01*
X003717Y004940D02*
X003717Y005094D01*
X003717Y004787D02*
X003486Y004787D01*
X003410Y004710D01*
X003410Y004556D01*
X003563Y004556D02*
X003563Y004787D01*
X003717Y004787D02*
X003717Y004556D01*
X003640Y004480D01*
X003563Y004556D01*
X003486Y004326D02*
X003717Y004326D01*
X003486Y004326D02*
X003410Y004249D01*
X003410Y004019D01*
X003717Y004019D01*
X003717Y003866D02*
X003410Y003866D01*
X003256Y003712D01*
X003410Y003559D01*
X003717Y003559D01*
X003486Y003559D02*
X003486Y003866D01*
X003256Y004940D02*
X003256Y005017D01*
X005465Y004519D02*
X005772Y004519D01*
X005849Y004979D02*
X005542Y004979D01*
X005619Y004979D02*
X005619Y005286D01*
X008406Y003797D02*
X008406Y003490D01*
X008867Y003490D01*
X008972Y003540D02*
X008972Y003820D01*
X009307Y003820D02*
X009307Y003540D01*
X009406Y003720D02*
X009636Y003490D01*
X009636Y003797D01*
X009406Y003720D02*
X009867Y003720D01*
X010031Y003740D02*
X010031Y004047D01*
X010261Y003893D02*
X010261Y003740D01*
X010261Y003586D02*
X010415Y003586D01*
X010492Y003509D01*
X010492Y003433D01*
X010415Y003356D01*
X010568Y003356D01*
X010645Y003279D01*
X010415Y003356D02*
X010261Y003356D01*
X010108Y003126D02*
X010415Y002819D01*
X010492Y002896D01*
X010492Y003049D01*
X010415Y003126D01*
X010108Y003126D01*
X010031Y003049D01*
X010031Y002896D01*
X010108Y002819D01*
X010415Y002819D01*
X010492Y002665D02*
X010492Y002358D01*
X010492Y002512D02*
X010031Y002512D01*
X010185Y002358D01*
X009790Y003029D02*
X009483Y003029D01*
X009406Y003106D01*
X009406Y003259D01*
X009483Y003336D01*
X009790Y003336D02*
X009867Y003259D01*
X009867Y003106D01*
X009790Y003029D01*
X010031Y003740D02*
X010492Y003740D01*
X010752Y003820D02*
X010752Y003530D01*
X011272Y003530D02*
X011272Y003830D01*
X011531Y003816D02*
X011608Y003740D01*
X011531Y003816D02*
X011531Y003970D01*
X011608Y004047D01*
X011685Y004047D01*
X011761Y003970D01*
X011838Y004047D01*
X011915Y004047D01*
X011992Y003970D01*
X011992Y003816D01*
X011915Y003740D01*
X011992Y003586D02*
X011992Y003279D01*
X011992Y003433D02*
X011531Y003433D01*
X011685Y003279D01*
X011608Y003126D02*
X011531Y003049D01*
X011531Y002896D01*
X011608Y002819D01*
X011915Y002819D01*
X011992Y002896D01*
X011992Y003049D01*
X011915Y003126D01*
X012407Y003027D02*
X012483Y002950D01*
X012637Y002950D01*
X012714Y003027D01*
X012867Y003027D02*
X012944Y002950D01*
X013097Y002950D01*
X013174Y003027D01*
X013174Y003180D01*
X013097Y003257D01*
X013021Y003257D01*
X012867Y003180D01*
X012867Y003410D01*
X013174Y003410D01*
X013097Y003797D02*
X013174Y003873D01*
X013174Y004027D01*
X013251Y003950D01*
X013327Y003950D01*
X013404Y004027D01*
X013404Y004180D01*
X013558Y004180D02*
X013711Y004180D01*
X013558Y003950D02*
X013558Y004410D01*
X013865Y004410D01*
X013174Y004180D02*
X013174Y004027D01*
X012944Y003950D02*
X012637Y003950D01*
X012790Y003950D02*
X012790Y004410D01*
X012637Y004257D01*
X012483Y004027D02*
X012407Y004027D01*
X012407Y003950D01*
X012483Y003950D01*
X012483Y004027D01*
X012497Y004515D02*
X012777Y004515D01*
X012777Y004850D02*
X012497Y004850D01*
X012483Y004950D02*
X012637Y004950D01*
X012714Y005027D01*
X012867Y005027D02*
X012944Y004950D01*
X013097Y004950D01*
X013174Y005027D01*
X013174Y005103D01*
X013097Y005180D01*
X012867Y005180D01*
X012867Y005027D01*
X012867Y005180D02*
X013021Y005334D01*
X013174Y005410D01*
X012714Y005334D02*
X012637Y005410D01*
X012483Y005410D01*
X012407Y005334D01*
X012407Y005027D01*
X012483Y004950D01*
X011761Y003970D02*
X011761Y003893D01*
X012407Y003334D02*
X012407Y003027D01*
X012497Y002850D02*
X012777Y002850D01*
X012777Y002515D02*
X012497Y002515D01*
X012637Y002257D02*
X012790Y002410D01*
X012790Y001950D01*
X012637Y001950D02*
X012944Y001950D01*
X013097Y001797D02*
X013174Y001873D01*
X013174Y002027D01*
X013251Y001950D01*
X013327Y001950D01*
X013404Y002027D01*
X013404Y002180D01*
X013558Y002180D02*
X013711Y002180D01*
X013558Y001950D02*
X013558Y002410D01*
X013865Y002410D01*
X013174Y002180D02*
X013174Y002027D01*
X012483Y002027D02*
X012483Y001950D01*
X012407Y001950D01*
X012407Y002027D01*
X012483Y002027D01*
X012407Y003334D02*
X012483Y003410D01*
X012637Y003410D01*
X012714Y003334D01*
X009020Y003029D02*
X008943Y003106D01*
X008790Y003106D01*
X008867Y003183D01*
X008867Y003259D01*
X008790Y003336D01*
X008636Y003336D01*
X008636Y003490D02*
X008636Y003643D01*
X008636Y003106D02*
X008790Y003106D01*
X008867Y002876D02*
X008867Y002569D01*
X008867Y002722D02*
X008406Y002722D01*
X008560Y002569D01*
X008790Y002415D02*
X008790Y002339D01*
X008867Y002339D01*
X008867Y002415D01*
X008790Y002415D01*
X007404Y009277D02*
X007404Y009430D01*
X007174Y009584D02*
X007097Y009660D01*
X002492Y013186D02*
X002492Y013263D01*
X002492Y013186D02*
X002338Y013186D01*
X002261Y013263D01*
X002108Y013263D01*
D12*
X000742Y001000D02*
X000667Y000925D01*
X000742Y001000D02*
X000742Y001075D01*
X000667Y001150D01*
X000291Y001150D01*
X000291Y001075D02*
X000291Y001225D01*
X000291Y001385D02*
X000291Y001611D01*
X000366Y001686D01*
X000516Y001686D01*
X000592Y001611D01*
X000592Y001385D01*
X000742Y001385D02*
X000291Y001385D01*
X000366Y001846D02*
X000291Y001921D01*
X000291Y002071D01*
X000366Y002146D01*
X000667Y001846D01*
X000742Y001921D01*
X000742Y002071D01*
X000667Y002146D01*
X000366Y002146D01*
X000366Y001846D02*
X000667Y001846D01*
X001291Y001996D02*
X001441Y001846D01*
X001366Y001686D02*
X001516Y001686D01*
X001592Y001611D01*
X001592Y001385D01*
X001742Y001385D02*
X001291Y001385D01*
X001291Y001611D01*
X001366Y001686D01*
X001291Y001996D02*
X001742Y001996D01*
X001742Y001846D02*
X001742Y002146D01*
X001291Y001225D02*
X001291Y001075D01*
X001291Y001150D02*
X001667Y001150D01*
X001742Y001075D01*
X001742Y001000D01*
X001667Y000925D01*
X001987Y000930D02*
X002987Y000930D01*
X002987Y006930D01*
X001987Y006930D01*
X001987Y000930D01*
X000987Y000930D01*
X000987Y006930D01*
X001987Y006930D01*
X001987Y000930D01*
X007898Y001069D02*
X007898Y001419D01*
X007956Y001303D02*
X008073Y001303D01*
X008131Y001244D01*
X008131Y001069D01*
X008324Y001127D02*
X008324Y001361D01*
X008266Y001303D02*
X008383Y001303D01*
X008512Y001303D02*
X008628Y001303D01*
X008570Y001361D02*
X008570Y001127D01*
X008628Y001069D01*
X008757Y001069D02*
X008932Y001069D01*
X008991Y001127D01*
X008991Y001244D01*
X008932Y001303D01*
X008757Y001303D01*
X008757Y000952D01*
X009125Y001069D02*
X009125Y001127D01*
X009184Y001127D01*
X009184Y001069D01*
X009125Y001069D01*
X009125Y001244D02*
X009125Y001303D01*
X009184Y001303D01*
X009184Y001244D01*
X009125Y001244D01*
X009310Y001069D02*
X009543Y001419D01*
X009911Y001419D02*
X009678Y001069D01*
X010046Y001127D02*
X010105Y001069D01*
X010163Y001127D01*
X010221Y001069D01*
X010280Y001127D01*
X010280Y001303D01*
X010414Y001303D02*
X010414Y001127D01*
X010473Y001069D01*
X010531Y001127D01*
X010590Y001069D01*
X010648Y001127D01*
X010648Y001303D01*
X010783Y001303D02*
X010783Y001127D01*
X010841Y001069D01*
X010900Y001127D01*
X010958Y001069D01*
X011016Y001127D01*
X011016Y001303D01*
X011151Y001127D02*
X011209Y001127D01*
X011209Y001069D01*
X011151Y001069D01*
X011151Y001127D01*
X011335Y001069D02*
X011510Y001069D01*
X011569Y001127D01*
X011510Y001186D01*
X011394Y001186D01*
X011335Y001244D01*
X011394Y001303D01*
X011569Y001303D01*
X011704Y001244D02*
X011704Y001127D01*
X011762Y001069D01*
X011879Y001069D01*
X011937Y001186D02*
X011704Y001186D01*
X011704Y001244D02*
X011762Y001303D01*
X011879Y001303D01*
X011937Y001244D01*
X011937Y001186D01*
X012072Y001244D02*
X012072Y001127D01*
X012130Y001069D01*
X012305Y001069D01*
X012440Y001127D02*
X012499Y001069D01*
X012674Y001069D01*
X012674Y001303D01*
X012809Y001303D02*
X012809Y001069D01*
X012809Y001186D02*
X012925Y001303D01*
X012984Y001303D01*
X013115Y001303D02*
X013174Y001303D01*
X013174Y001069D01*
X013232Y001069D02*
X013115Y001069D01*
X013361Y001069D02*
X013361Y001303D01*
X013536Y001303D01*
X013595Y001244D01*
X013595Y001069D01*
X013729Y001127D02*
X013729Y001244D01*
X013788Y001303D01*
X013963Y001303D01*
X013963Y001011D01*
X013904Y000952D01*
X013846Y000952D01*
X013788Y001069D02*
X013963Y001069D01*
X014098Y001069D02*
X014098Y001419D01*
X014156Y001303D02*
X014098Y001244D01*
X014156Y001303D02*
X014273Y001303D01*
X014331Y001244D01*
X014331Y001069D01*
X014466Y001127D02*
X014524Y001186D01*
X014699Y001186D01*
X014699Y001244D02*
X014699Y001069D01*
X014524Y001069D01*
X014466Y001127D01*
X014524Y001303D02*
X014641Y001303D01*
X014699Y001244D01*
X014834Y001186D02*
X014951Y001303D01*
X015009Y001303D01*
X015141Y001244D02*
X015200Y001303D01*
X015375Y001303D01*
X015375Y001419D02*
X015375Y001069D01*
X015200Y001069D01*
X015141Y001127D01*
X015141Y001244D01*
X014834Y001303D02*
X014834Y001069D01*
X015509Y001127D02*
X015568Y001069D01*
X015626Y001127D01*
X015685Y001069D01*
X015743Y001127D01*
X015743Y001303D01*
X015936Y001303D02*
X016053Y001303D01*
X016111Y001244D01*
X016111Y001069D01*
X015936Y001069D01*
X015878Y001127D01*
X015936Y001186D01*
X016111Y001186D01*
X016246Y001186D02*
X016363Y001303D01*
X016421Y001303D01*
X016553Y001244D02*
X016611Y001303D01*
X016728Y001303D01*
X016787Y001244D01*
X016787Y001186D01*
X016553Y001186D01*
X016553Y001244D02*
X016553Y001127D01*
X016611Y001069D01*
X016728Y001069D01*
X016921Y001069D02*
X016980Y001069D01*
X016980Y001127D01*
X016921Y001127D01*
X016921Y001069D01*
X017106Y001127D02*
X017106Y001244D01*
X017164Y001303D01*
X017339Y001303D01*
X017474Y001244D02*
X017474Y001127D01*
X017532Y001069D01*
X017649Y001069D01*
X017707Y001127D01*
X017707Y001244D01*
X017649Y001303D01*
X017532Y001303D01*
X017474Y001244D01*
X017339Y001069D02*
X017164Y001069D01*
X017106Y001127D01*
X017842Y001069D02*
X017842Y001303D01*
X017901Y001303D01*
X017959Y001244D01*
X018017Y001303D01*
X018076Y001244D01*
X018076Y001069D01*
X017959Y001069D02*
X017959Y001244D01*
X016246Y001303D02*
X016246Y001069D01*
X015509Y001127D02*
X015509Y001303D01*
X013788Y001069D02*
X013729Y001127D01*
X013174Y001419D02*
X013174Y001478D01*
X012440Y001303D02*
X012440Y001127D01*
X012305Y001303D02*
X012130Y001303D01*
X012072Y001244D01*
X010046Y001303D02*
X010046Y001127D01*
X008383Y001069D02*
X008324Y001127D01*
X007956Y001303D02*
X007898Y001244D01*
X018787Y006280D02*
X018787Y012280D01*
X019787Y012280D01*
X019787Y006280D01*
X018787Y006280D01*
X020407Y010954D02*
X020482Y011029D01*
X020482Y011104D01*
X020407Y011179D01*
X020031Y011179D01*
X020031Y011104D02*
X020031Y011254D01*
X020031Y011414D02*
X020031Y011639D01*
X020106Y011714D01*
X020256Y011714D01*
X020332Y011639D01*
X020332Y011414D01*
X020482Y011414D02*
X020031Y011414D01*
X020106Y011875D02*
X020031Y011950D01*
X020031Y012100D01*
X020106Y012175D01*
X020181Y012175D01*
X020256Y012100D01*
X020332Y012175D01*
X020407Y012175D01*
X020482Y012100D01*
X020482Y011950D01*
X020407Y011875D01*
X020256Y012025D02*
X020256Y012100D01*
X002942Y015814D02*
X002942Y015889D01*
X002867Y015964D01*
X002491Y015964D01*
X002491Y015889D02*
X002491Y016039D01*
X002491Y016199D02*
X002491Y016424D01*
X002566Y016499D01*
X002716Y016499D01*
X002792Y016424D01*
X002792Y016199D01*
X002942Y016199D02*
X002491Y016199D01*
X002566Y016660D02*
X002491Y016735D01*
X002491Y016885D01*
X002566Y016960D01*
X002641Y016960D01*
X002942Y016660D01*
X002942Y016960D01*
X002942Y015814D02*
X002867Y015739D01*
D13*
X002320Y014713D02*
X002197Y014713D01*
X002135Y014652D01*
X002135Y014405D01*
X002197Y014343D01*
X002320Y014343D01*
X002382Y014405D01*
X002382Y014652D02*
X002320Y014713D01*
X002014Y014652D02*
X001952Y014713D01*
X001829Y014713D01*
X001767Y014652D01*
X001767Y014405D01*
X001829Y014343D01*
X001952Y014343D01*
X002014Y014405D01*
X001646Y014466D02*
X001646Y014713D01*
X001399Y014713D02*
X001399Y014466D01*
X001522Y014343D01*
X001646Y014466D01*
X001557Y017988D02*
X001433Y017988D01*
X001372Y018050D01*
X001372Y018297D01*
X001433Y018358D01*
X001557Y018358D01*
X001619Y018297D01*
X001619Y018173D02*
X001495Y018173D01*
X001619Y018173D02*
X001619Y018050D01*
X001557Y017988D01*
X001740Y017988D02*
X001740Y018358D01*
X001987Y017988D01*
X001987Y018358D01*
X002108Y018358D02*
X002293Y018358D01*
X002355Y018297D01*
X002355Y018050D01*
X002293Y017988D01*
X002108Y017988D01*
X002108Y018358D01*
X012224Y010455D02*
X012224Y010208D01*
X012224Y010394D02*
X012471Y010394D01*
X012471Y010455D02*
X012471Y010208D01*
X012593Y010208D02*
X012778Y010208D01*
X012840Y010270D01*
X012840Y010517D01*
X012778Y010579D01*
X012593Y010579D01*
X012593Y010208D01*
X012471Y010455D02*
X012348Y010579D01*
X012224Y010455D01*
X012961Y010455D02*
X012961Y010517D01*
X013023Y010579D01*
X013146Y010579D01*
X013208Y010517D01*
X013208Y010455D01*
X013146Y010394D01*
X013023Y010394D01*
X012961Y010455D01*
X013023Y010394D02*
X012961Y010332D01*
X012961Y010270D01*
X013023Y010208D01*
X013146Y010208D01*
X013208Y010270D01*
X013208Y010332D01*
X013146Y010394D01*
X013329Y010455D02*
X013453Y010579D01*
X013453Y010208D01*
X013576Y010208D02*
X013329Y010208D01*
X013698Y010208D02*
X013945Y010455D01*
X013945Y010517D01*
X013883Y010579D01*
X013759Y010579D01*
X013698Y010517D01*
X013698Y010208D02*
X013945Y010208D01*
X014066Y010270D02*
X014128Y010208D01*
X014251Y010208D01*
X014313Y010270D01*
X014313Y010517D01*
X014251Y010579D01*
X014128Y010579D01*
X014066Y010517D01*
X014066Y010455D01*
X014128Y010394D01*
X014313Y010394D01*
X014434Y010394D02*
X014681Y010394D01*
X014681Y010455D02*
X014681Y010208D01*
X014803Y010208D02*
X014803Y010579D01*
X014988Y010579D01*
X015050Y010517D01*
X015050Y010394D01*
X014988Y010332D01*
X014803Y010332D01*
X014926Y010332D02*
X015050Y010208D01*
X015171Y010208D02*
X015171Y010579D01*
X015294Y010455D01*
X015418Y010579D01*
X015418Y010208D01*
X015368Y010106D02*
X015368Y009798D01*
X015430Y009736D01*
X015553Y009736D01*
X015615Y009798D01*
X015615Y010106D01*
X015539Y010208D02*
X015786Y010208D01*
X015798Y010106D02*
X015736Y010045D01*
X015798Y010106D02*
X015921Y010106D01*
X015983Y010045D01*
X015983Y009983D01*
X015736Y009736D01*
X015983Y009736D01*
X015539Y010208D02*
X015539Y010270D01*
X015786Y010517D01*
X015786Y010579D01*
X015539Y010579D01*
X014681Y010455D02*
X014558Y010579D01*
X014434Y010455D01*
X014434Y010208D01*
X017698Y008793D02*
X017698Y008546D01*
X017759Y008484D01*
X017883Y008484D01*
X017945Y008546D01*
X017945Y008669D01*
X017821Y008669D01*
X017698Y008793D02*
X017759Y008854D01*
X017883Y008854D01*
X017945Y008793D01*
X018066Y008854D02*
X018313Y008484D01*
X018313Y008854D01*
X018434Y008854D02*
X018619Y008854D01*
X018681Y008793D01*
X018681Y008546D01*
X018619Y008484D01*
X018434Y008484D01*
X018434Y008854D01*
X018066Y008854D02*
X018066Y008484D01*
X018102Y007855D02*
X018349Y007485D01*
X018349Y007855D01*
X018470Y007855D02*
X018655Y007855D01*
X018717Y007794D01*
X018717Y007547D01*
X018655Y007485D01*
X018470Y007485D01*
X018470Y007855D01*
X018102Y007855D02*
X018102Y007485D01*
X017981Y007547D02*
X017981Y007670D01*
X017857Y007670D01*
X017734Y007547D02*
X017795Y007485D01*
X017919Y007485D01*
X017981Y007547D01*
X017981Y007794D02*
X017919Y007855D01*
X017795Y007855D01*
X017734Y007794D01*
X017734Y007547D01*
X017777Y006982D02*
X017716Y006921D01*
X017716Y006674D01*
X017777Y006612D01*
X017901Y006612D01*
X017963Y006674D01*
X018084Y006612D02*
X018331Y006612D01*
X018452Y006612D02*
X018452Y006982D01*
X018514Y006797D02*
X018699Y006612D01*
X018452Y006735D02*
X018699Y006982D01*
X018084Y006982D02*
X018084Y006612D01*
X017963Y006921D02*
X017901Y006982D01*
X017777Y006982D01*
X018409Y009560D02*
X018656Y009560D01*
X018559Y010994D02*
X018559Y011241D01*
X018436Y011117D02*
X018683Y011117D01*
X018946Y012471D02*
X019070Y012594D01*
X019070Y012841D01*
X019191Y012780D02*
X019191Y012533D01*
X019253Y012471D01*
X019376Y012471D01*
X019438Y012533D01*
X019559Y012533D02*
X019621Y012471D01*
X019744Y012471D01*
X019806Y012533D01*
X019806Y012780D02*
X019744Y012841D01*
X019621Y012841D01*
X019559Y012780D01*
X019559Y012533D01*
X019438Y012780D02*
X019376Y012841D01*
X019253Y012841D01*
X019191Y012780D01*
X018823Y012841D02*
X018823Y012594D01*
X018946Y012471D01*
X003525Y007179D02*
X003278Y007179D01*
X003402Y007179D02*
X003402Y007549D01*
X003278Y007426D01*
X003157Y007488D02*
X003095Y007549D01*
X002910Y007549D01*
X002910Y007179D01*
X003095Y007179D01*
X003157Y007241D01*
X003157Y007488D01*
X002789Y007426D02*
X002789Y007179D01*
X002789Y007364D02*
X002542Y007364D01*
X002542Y007426D02*
X002665Y007549D01*
X002789Y007426D01*
X002542Y007426D02*
X002542Y007179D01*
X001932Y007205D02*
X001870Y007143D01*
X001747Y007143D01*
X001685Y007205D01*
X001932Y007452D01*
X001932Y007205D01*
X001932Y007452D02*
X001870Y007513D01*
X001747Y007513D01*
X001685Y007452D01*
X001685Y007205D01*
X001564Y007205D02*
X001502Y007143D01*
X001317Y007143D01*
X001317Y007513D01*
X001502Y007513D01*
X001564Y007452D01*
X001564Y007205D01*
X001196Y007143D02*
X001196Y007390D01*
X001072Y007513D01*
X000949Y007390D01*
X000949Y007143D01*
X000949Y007328D02*
X001196Y007328D01*
X001604Y000808D02*
X001543Y000747D01*
X001543Y000500D01*
X001604Y000438D01*
X001728Y000438D01*
X001790Y000500D01*
X001790Y000623D01*
X001666Y000623D01*
X001790Y000747D02*
X001728Y000808D01*
X001604Y000808D01*
X001911Y000808D02*
X001911Y000438D01*
X002158Y000438D02*
X002158Y000808D01*
X002279Y000808D02*
X002464Y000808D01*
X002526Y000747D01*
X002526Y000500D01*
X002464Y000438D01*
X002279Y000438D01*
X002279Y000808D01*
X001911Y000808D02*
X002158Y000438D01*
D14*
X010243Y008686D02*
X010383Y008686D01*
X010383Y008779D01*
X010383Y008833D02*
X010383Y008880D01*
X010383Y008857D02*
X010289Y008857D01*
X010289Y008833D01*
X010243Y008857D02*
X010219Y008857D01*
X010243Y008779D02*
X010243Y008686D01*
X010313Y008686D02*
X010313Y008733D01*
X010289Y008932D02*
X010289Y008978D01*
X010266Y008955D02*
X010359Y008955D01*
X010383Y008978D01*
X010383Y009030D02*
X010243Y009030D01*
X010289Y009053D02*
X010289Y009100D01*
X010313Y009123D01*
X010383Y009123D01*
X010359Y009177D02*
X010313Y009177D01*
X010289Y009200D01*
X010289Y009247D01*
X010313Y009270D01*
X010336Y009270D01*
X010336Y009177D01*
X010359Y009177D02*
X010383Y009200D01*
X010383Y009247D01*
X010383Y009324D02*
X010289Y009324D01*
X010336Y009324D02*
X010289Y009371D01*
X010289Y009394D01*
X010243Y009595D02*
X010243Y009665D01*
X010266Y009688D01*
X010313Y009688D01*
X010336Y009665D01*
X010336Y009595D01*
X010336Y009641D02*
X010383Y009688D01*
X010383Y009742D02*
X010243Y009742D01*
X010243Y009835D01*
X010313Y009789D02*
X010313Y009742D01*
X010383Y009595D02*
X010243Y009595D01*
X010313Y010036D02*
X010359Y010036D01*
X010383Y010060D01*
X010383Y010107D01*
X010359Y010130D01*
X010313Y010130D01*
X010289Y010107D01*
X010289Y010060D01*
X010313Y010036D01*
X010336Y010184D02*
X010289Y010231D01*
X010289Y010254D01*
X010289Y010184D02*
X010383Y010184D01*
X010383Y010454D02*
X010243Y010454D01*
X010243Y010524D01*
X010266Y010547D01*
X010313Y010547D01*
X010336Y010524D01*
X010336Y010454D01*
X010336Y010501D02*
X010383Y010547D01*
X010383Y010601D02*
X010243Y010601D01*
X010243Y010695D01*
X010289Y010749D02*
X010243Y010795D01*
X010383Y010795D01*
X010383Y010749D02*
X010383Y010842D01*
X010383Y010896D02*
X010359Y010896D01*
X010313Y010896D02*
X010219Y010896D01*
X010313Y010648D02*
X010313Y010601D01*
X010289Y009053D02*
X010313Y009030D01*
X001844Y009334D02*
X001846Y009344D01*
X001851Y009353D01*
X001859Y009360D01*
X001869Y009364D01*
X001879Y009364D01*
X001889Y009360D01*
X001897Y009353D01*
X001902Y009344D01*
X001904Y009334D01*
X001902Y009324D01*
X001897Y009315D01*
X001889Y009308D01*
X001879Y009304D01*
X001869Y009304D01*
X001859Y009308D01*
X001851Y009315D01*
X001846Y009324D01*
X001844Y009334D01*
D15*
X004613Y006813D02*
X004613Y002797D01*
X006660Y002797D01*
X006660Y006813D01*
X009241Y008187D02*
X010958Y008187D01*
X010958Y011407D01*
X009241Y011407D01*
X009241Y008187D01*
X015085Y009629D02*
X015085Y010731D01*
X016188Y010731D01*
X016188Y009629D01*
X015085Y009629D01*
X009997Y014822D02*
X009997Y017938D01*
X003776Y017938D01*
X003776Y016880D01*
X003774Y016882D02*
X003818Y016880D01*
X003861Y016874D01*
X003904Y016865D01*
X003946Y016852D01*
X003986Y016835D01*
X004025Y016815D01*
X004062Y016791D01*
X004097Y016765D01*
X004129Y016735D01*
X004159Y016703D01*
X004185Y016668D01*
X004209Y016631D01*
X004229Y016592D01*
X004246Y016552D01*
X004259Y016510D01*
X004268Y016467D01*
X004274Y016424D01*
X004276Y016380D01*
X004274Y016336D01*
X004268Y016293D01*
X004259Y016250D01*
X004246Y016208D01*
X004229Y016168D01*
X004209Y016129D01*
X004185Y016092D01*
X004159Y016057D01*
X004129Y016025D01*
X004097Y015995D01*
X004062Y015969D01*
X004025Y015945D01*
X003986Y015925D01*
X003946Y015908D01*
X003904Y015895D01*
X003861Y015886D01*
X003818Y015880D01*
X003774Y015878D01*
X003776Y015880D02*
X003776Y014822D01*
X009997Y014822D01*
D16*
X006932Y006468D03*
X006932Y006213D03*
X006932Y005957D03*
X006932Y005701D03*
X006932Y005445D03*
X006932Y005189D03*
X006932Y004933D03*
X006932Y004677D03*
X006932Y004421D03*
X006932Y004165D03*
X006932Y003909D03*
X006932Y003653D03*
X006932Y003397D03*
X006932Y003142D03*
X004342Y003142D03*
X004342Y003397D03*
X004342Y003653D03*
X004342Y003909D03*
X004342Y004165D03*
X004342Y004421D03*
X004342Y004677D03*
X004342Y004933D03*
X004342Y005189D03*
X004342Y005445D03*
X004342Y005701D03*
X004342Y005957D03*
X004342Y006213D03*
X004342Y006468D03*
D17*
X005637Y006660D03*
D18*
X016030Y010574D03*
D19*
X016021Y010958D03*
X015765Y010958D03*
X015509Y010958D03*
X015253Y010958D03*
X015253Y009402D03*
X015509Y009402D03*
X015765Y009402D03*
X016021Y009402D03*
D20*
X017497Y010010D02*
X017497Y010350D01*
X017777Y010350D02*
X017777Y010010D01*
X012807Y011540D02*
X012467Y011540D01*
X012467Y011820D02*
X012807Y011820D01*
X009631Y011115D02*
X009291Y011115D01*
X009291Y010835D02*
X009631Y010835D01*
X006307Y012040D02*
X005967Y012040D01*
X005967Y012320D02*
X006307Y012320D01*
X002247Y014315D02*
X001997Y014065D01*
X001497Y014065D01*
X001247Y014315D01*
X001247Y014815D01*
X001497Y015065D01*
X001247Y015315D01*
X001247Y015815D01*
X001497Y016065D01*
X001247Y016315D01*
X001247Y016815D01*
X001497Y017065D01*
X001997Y017065D01*
X002247Y016815D01*
X002247Y016315D01*
X001997Y016065D01*
X002247Y015815D01*
X002247Y015315D01*
X001997Y015065D01*
X002247Y014815D01*
X002247Y014315D01*
X001997Y015065D02*
X001497Y015065D01*
X001497Y016065D02*
X001997Y016065D01*
X001902Y011975D02*
X001902Y011635D01*
X001622Y011635D02*
X001622Y011975D01*
X014497Y015010D02*
X014497Y015350D01*
X014777Y015350D02*
X014777Y015010D01*
X014777Y017010D02*
X014777Y017350D01*
X014497Y017350D02*
X014497Y017010D01*
D21*
X012887Y011680D03*
X012387Y011680D03*
X009711Y010975D03*
X009211Y010975D03*
X006387Y012180D03*
X005887Y012180D03*
D22*
X001762Y012055D03*
X001762Y011555D03*
X014637Y014930D03*
X014637Y015430D03*
X014637Y016930D03*
X014637Y017430D03*
X017637Y010430D03*
X017637Y009930D03*
D23*
X016868Y012178D03*
X016408Y012178D03*
X014868Y012178D03*
X014408Y012178D03*
X007115Y008057D03*
X006655Y008057D03*
X004868Y008178D03*
X004408Y008178D03*
X012405Y004682D03*
X012865Y004682D03*
X012865Y002682D03*
X012405Y002682D03*
D24*
X011012Y003392D03*
X011012Y003962D03*
X012136Y006148D03*
X012136Y006718D03*
X012636Y014898D03*
X012636Y015468D03*
X012637Y016892D03*
X012637Y017462D03*
D25*
X009635Y006533D03*
X009635Y006073D03*
X009139Y003912D03*
X009139Y003452D03*
D26*
X007174Y010180D03*
X006604Y010180D03*
X004919Y010180D03*
X004349Y010180D03*
D27*
X004887Y014690D03*
X005887Y014690D03*
X006887Y014690D03*
X007887Y014690D03*
X008887Y014690D03*
X008887Y018070D03*
X007887Y018070D03*
X006887Y018070D03*
X005887Y018070D03*
X004887Y018070D03*
D28*
X001747Y016565D03*
X001747Y015565D03*
X001747Y014565D03*
X001487Y006430D03*
X002487Y006430D03*
X002487Y005430D03*
X001487Y005430D03*
X001487Y004430D03*
X002487Y004430D03*
X002487Y003430D03*
X001487Y003430D03*
X001487Y002430D03*
X002487Y002430D03*
X002487Y001430D03*
X001487Y001430D03*
X019287Y006780D03*
X019287Y007780D03*
X019287Y008780D03*
X019287Y009780D03*
X019287Y010780D03*
X019287Y011780D03*
D29*
X001872Y009256D02*
X001836Y009256D01*
X001837Y009257D02*
X001835Y009276D01*
X001829Y009295D01*
X001819Y009312D01*
X001807Y009326D01*
X001792Y009339D01*
X001775Y009348D01*
X001756Y009353D01*
X001737Y009355D01*
X001718Y009353D01*
X001699Y009348D01*
X001682Y009339D01*
X001667Y009326D01*
X001655Y009312D01*
X001645Y009295D01*
X001639Y009276D01*
X001637Y009257D01*
X001602Y009256D01*
X001601Y009257D01*
X001603Y009279D01*
X001609Y009301D01*
X001618Y009321D01*
X001630Y009339D01*
X001646Y009356D01*
X001663Y009369D01*
X001683Y009380D01*
X001704Y009387D01*
X001726Y009391D01*
X001748Y009391D01*
X001770Y009387D01*
X001791Y009380D01*
X001811Y009369D01*
X001828Y009356D01*
X001844Y009339D01*
X001856Y009321D01*
X001865Y009301D01*
X001871Y009279D01*
X001873Y009257D01*
X001870Y009257D01*
X001868Y009279D01*
X001862Y009300D01*
X001853Y009320D01*
X001841Y009338D01*
X001826Y009353D01*
X001809Y009367D01*
X001790Y009377D01*
X001769Y009384D01*
X001748Y009388D01*
X001726Y009388D01*
X001705Y009384D01*
X001684Y009377D01*
X001665Y009367D01*
X001648Y009353D01*
X001633Y009338D01*
X001621Y009320D01*
X001612Y009300D01*
X001606Y009279D01*
X001604Y009257D01*
X001607Y009257D01*
X001609Y009279D01*
X001615Y009301D01*
X001625Y009321D01*
X001638Y009339D01*
X001654Y009355D01*
X001673Y009368D01*
X001693Y009377D01*
X001715Y009383D01*
X001737Y009385D01*
X001759Y009383D01*
X001781Y009377D01*
X001801Y009368D01*
X001820Y009355D01*
X001836Y009339D01*
X001849Y009321D01*
X001859Y009301D01*
X001865Y009279D01*
X001867Y009257D01*
X001864Y009257D01*
X001862Y009279D01*
X001856Y009300D01*
X001846Y009320D01*
X001834Y009337D01*
X001818Y009353D01*
X001800Y009365D01*
X001780Y009374D01*
X001759Y009380D01*
X001737Y009382D01*
X001715Y009380D01*
X001694Y009374D01*
X001674Y009365D01*
X001656Y009353D01*
X001640Y009337D01*
X001628Y009320D01*
X001618Y009300D01*
X001612Y009279D01*
X001610Y009257D01*
X001613Y009257D01*
X001615Y009278D01*
X001621Y009299D01*
X001630Y009318D01*
X001643Y009336D01*
X001658Y009351D01*
X001676Y009363D01*
X001695Y009372D01*
X001716Y009377D01*
X001737Y009379D01*
X001758Y009377D01*
X001779Y009372D01*
X001798Y009363D01*
X001816Y009351D01*
X001831Y009336D01*
X001844Y009318D01*
X001853Y009299D01*
X001859Y009278D01*
X001861Y009257D01*
X001858Y009257D01*
X001856Y009278D01*
X001850Y009298D01*
X001841Y009317D01*
X001829Y009334D01*
X001814Y009348D01*
X001797Y009360D01*
X001778Y009369D01*
X001758Y009374D01*
X001737Y009376D01*
X001716Y009374D01*
X001696Y009369D01*
X001677Y009360D01*
X001660Y009348D01*
X001645Y009334D01*
X001633Y009317D01*
X001624Y009298D01*
X001618Y009278D01*
X001616Y009257D01*
X001619Y009257D01*
X001621Y009277D01*
X001627Y009297D01*
X001635Y009315D01*
X001647Y009332D01*
X001662Y009346D01*
X001679Y009358D01*
X001697Y009366D01*
X001717Y009371D01*
X001737Y009373D01*
X001757Y009371D01*
X001777Y009366D01*
X001795Y009358D01*
X001812Y009346D01*
X001827Y009332D01*
X001839Y009315D01*
X001847Y009297D01*
X001853Y009277D01*
X001855Y009257D01*
X001852Y009257D01*
X001850Y009278D01*
X001844Y009298D01*
X001834Y009317D01*
X001821Y009333D01*
X001806Y009347D01*
X001788Y009358D01*
X001768Y009366D01*
X001747Y009370D01*
X001727Y009370D01*
X001706Y009366D01*
X001686Y009358D01*
X001668Y009347D01*
X001653Y009333D01*
X001640Y009317D01*
X001630Y009298D01*
X001624Y009278D01*
X001622Y009257D01*
X001625Y009257D01*
X001627Y009277D01*
X001633Y009297D01*
X001642Y009315D01*
X001655Y009331D01*
X001670Y009345D01*
X001688Y009356D01*
X001707Y009363D01*
X001727Y009367D01*
X001747Y009367D01*
X001767Y009363D01*
X001786Y009356D01*
X001804Y009345D01*
X001819Y009331D01*
X001832Y009315D01*
X001841Y009297D01*
X001847Y009277D01*
X001849Y009257D01*
X001846Y009257D01*
X001844Y009277D01*
X001838Y009296D01*
X001829Y009313D01*
X001817Y009329D01*
X001802Y009342D01*
X001785Y009353D01*
X001766Y009360D01*
X001747Y009364D01*
X001727Y009364D01*
X001708Y009360D01*
X001689Y009353D01*
X001672Y009342D01*
X001657Y009329D01*
X001645Y009313D01*
X001636Y009296D01*
X001630Y009277D01*
X001628Y009257D01*
X001631Y009257D01*
X001633Y009276D01*
X001639Y009295D01*
X001648Y009312D01*
X001659Y009327D01*
X001674Y009340D01*
X001690Y009350D01*
X001708Y009357D01*
X001727Y009361D01*
X001747Y009361D01*
X001766Y009357D01*
X001784Y009350D01*
X001800Y009340D01*
X001815Y009327D01*
X001826Y009312D01*
X001835Y009295D01*
X001841Y009276D01*
X001843Y009257D01*
X001840Y009257D01*
X001838Y009277D01*
X001832Y009296D01*
X001822Y009313D01*
X001809Y009329D01*
X001794Y009341D01*
X001776Y009350D01*
X001757Y009356D01*
X001737Y009358D01*
X001717Y009356D01*
X001698Y009350D01*
X001680Y009341D01*
X001665Y009329D01*
X001652Y009313D01*
X001642Y009296D01*
X001636Y009277D01*
X001634Y009257D01*
D30*
X001621Y009905D02*
X001639Y009905D01*
X001638Y009904D02*
X001640Y009885D01*
X001646Y009866D01*
X001655Y009849D01*
X001667Y009835D01*
X001682Y009822D01*
X001699Y009813D01*
X001718Y009808D01*
X001737Y009806D01*
X001756Y009808D01*
X001775Y009813D01*
X001792Y009822D01*
X001807Y009835D01*
X001819Y009849D01*
X001828Y009866D01*
X001834Y009885D01*
X001836Y009904D01*
X001853Y009905D01*
X001854Y009904D01*
X001852Y009884D01*
X001847Y009864D01*
X001838Y009846D01*
X001826Y009829D01*
X001812Y009815D01*
X001795Y009804D01*
X001777Y009795D01*
X001757Y009790D01*
X001737Y009788D01*
X001717Y009790D01*
X001697Y009795D01*
X001679Y009804D01*
X001662Y009815D01*
X001648Y009829D01*
X001636Y009846D01*
X001627Y009864D01*
X001622Y009884D01*
X001620Y009904D01*
X001621Y009904D01*
X001623Y009883D01*
X001629Y009862D01*
X001639Y009843D01*
X001652Y009826D01*
X001667Y009812D01*
X001686Y009801D01*
X001705Y009793D01*
X001726Y009789D01*
X001748Y009789D01*
X001769Y009793D01*
X001788Y009801D01*
X001807Y009812D01*
X001822Y009826D01*
X001835Y009843D01*
X001845Y009862D01*
X001851Y009883D01*
X001853Y009904D01*
X001852Y009904D01*
X001850Y009883D01*
X001844Y009863D01*
X001834Y009844D01*
X001822Y009827D01*
X001806Y009813D01*
X001788Y009802D01*
X001768Y009794D01*
X001748Y009790D01*
X001726Y009790D01*
X001706Y009794D01*
X001686Y009802D01*
X001668Y009813D01*
X001652Y009827D01*
X001640Y009844D01*
X001630Y009863D01*
X001624Y009883D01*
X001622Y009904D01*
X001623Y009904D01*
X001625Y009883D01*
X001631Y009863D01*
X001640Y009844D01*
X001653Y009828D01*
X001669Y009814D01*
X001686Y009803D01*
X001706Y009795D01*
X001727Y009791D01*
X001747Y009791D01*
X001768Y009795D01*
X001788Y009803D01*
X001805Y009814D01*
X001821Y009828D01*
X001834Y009844D01*
X001843Y009863D01*
X001849Y009883D01*
X001851Y009904D01*
X001850Y009904D01*
X001848Y009883D01*
X001842Y009863D01*
X001833Y009845D01*
X001820Y009828D01*
X001805Y009815D01*
X001787Y009804D01*
X001768Y009796D01*
X001747Y009792D01*
X001727Y009792D01*
X001706Y009796D01*
X001687Y009804D01*
X001669Y009815D01*
X001654Y009828D01*
X001641Y009845D01*
X001632Y009863D01*
X001626Y009883D01*
X001624Y009904D01*
X001625Y009904D01*
X001627Y009884D01*
X001633Y009864D01*
X001642Y009845D01*
X001655Y009829D01*
X001670Y009815D01*
X001687Y009805D01*
X001707Y009797D01*
X001727Y009793D01*
X001747Y009793D01*
X001767Y009797D01*
X001787Y009805D01*
X001804Y009815D01*
X001819Y009829D01*
X001832Y009845D01*
X001841Y009864D01*
X001847Y009884D01*
X001849Y009904D01*
X001848Y009904D01*
X001846Y009884D01*
X001840Y009864D01*
X001831Y009846D01*
X001819Y009830D01*
X001804Y009816D01*
X001786Y009806D01*
X001767Y009798D01*
X001747Y009794D01*
X001727Y009794D01*
X001707Y009798D01*
X001688Y009806D01*
X001670Y009816D01*
X001655Y009830D01*
X001643Y009846D01*
X001634Y009864D01*
X001628Y009884D01*
X001626Y009904D01*
X001627Y009904D01*
X001629Y009884D01*
X001635Y009865D01*
X001644Y009847D01*
X001656Y009831D01*
X001671Y009817D01*
X001688Y009806D01*
X001707Y009799D01*
X001727Y009795D01*
X001747Y009795D01*
X001767Y009799D01*
X001786Y009806D01*
X001803Y009817D01*
X001818Y009831D01*
X001830Y009847D01*
X001839Y009865D01*
X001845Y009884D01*
X001847Y009904D01*
X001846Y009904D01*
X001844Y009884D01*
X001838Y009865D01*
X001829Y009847D01*
X001817Y009831D01*
X001802Y009818D01*
X001785Y009807D01*
X001767Y009800D01*
X001747Y009796D01*
X001727Y009796D01*
X001707Y009800D01*
X001689Y009807D01*
X001672Y009818D01*
X001657Y009831D01*
X001645Y009847D01*
X001636Y009865D01*
X001630Y009884D01*
X001628Y009904D01*
X001629Y009904D01*
X001631Y009884D01*
X001637Y009865D01*
X001646Y009848D01*
X001658Y009832D01*
X001672Y009819D01*
X001689Y009808D01*
X001708Y009801D01*
X001727Y009797D01*
X001747Y009797D01*
X001766Y009801D01*
X001785Y009808D01*
X001802Y009819D01*
X001816Y009832D01*
X001828Y009848D01*
X001837Y009865D01*
X001843Y009884D01*
X001845Y009904D01*
X001844Y009904D01*
X001842Y009884D01*
X001836Y009866D01*
X001828Y009848D01*
X001816Y009833D01*
X001801Y009819D01*
X001784Y009809D01*
X001766Y009802D01*
X001747Y009798D01*
X001727Y009798D01*
X001708Y009802D01*
X001690Y009809D01*
X001673Y009819D01*
X001658Y009833D01*
X001646Y009848D01*
X001638Y009866D01*
X001632Y009884D01*
X001630Y009904D01*
X001631Y009904D01*
X001633Y009885D01*
X001638Y009866D01*
X001647Y009849D01*
X001659Y009833D01*
X001673Y009820D01*
X001690Y009810D01*
X001708Y009803D01*
X001727Y009799D01*
X001747Y009799D01*
X001766Y009803D01*
X001784Y009810D01*
X001801Y009820D01*
X001815Y009833D01*
X001827Y009849D01*
X001836Y009866D01*
X001841Y009885D01*
X001843Y009904D01*
X001842Y009904D01*
X001840Y009885D01*
X001835Y009866D01*
X001826Y009849D01*
X001814Y009834D01*
X001800Y009821D01*
X001784Y009811D01*
X001766Y009804D01*
X001747Y009800D01*
X001727Y009800D01*
X001708Y009804D01*
X001690Y009811D01*
X001674Y009821D01*
X001660Y009834D01*
X001648Y009849D01*
X001639Y009866D01*
X001634Y009885D01*
X001632Y009904D01*
X001633Y009904D01*
X001635Y009885D01*
X001640Y009867D01*
X001649Y009850D01*
X001661Y009835D01*
X001675Y009822D01*
X001691Y009812D01*
X001709Y009805D01*
X001727Y009801D01*
X001747Y009801D01*
X001765Y009805D01*
X001783Y009812D01*
X001799Y009822D01*
X001813Y009835D01*
X001825Y009850D01*
X001834Y009867D01*
X001839Y009885D01*
X001841Y009904D01*
X001840Y009904D01*
X001838Y009884D01*
X001832Y009865D01*
X001822Y009847D01*
X001809Y009832D01*
X001794Y009819D01*
X001776Y009810D01*
X001757Y009804D01*
X001737Y009802D01*
X001717Y009804D01*
X001698Y009810D01*
X001680Y009819D01*
X001665Y009832D01*
X001652Y009847D01*
X001642Y009865D01*
X001636Y009884D01*
X001634Y009904D01*
X001635Y009904D01*
X001637Y009884D01*
X001643Y009865D01*
X001653Y009848D01*
X001665Y009833D01*
X001681Y009820D01*
X001698Y009811D01*
X001717Y009805D01*
X001737Y009803D01*
X001757Y009805D01*
X001776Y009811D01*
X001793Y009820D01*
X001809Y009833D01*
X001821Y009848D01*
X001831Y009865D01*
X001837Y009884D01*
X001839Y009904D01*
X001838Y009904D01*
X001836Y009884D01*
X001830Y009866D01*
X001821Y009848D01*
X001808Y009833D01*
X001793Y009821D01*
X001775Y009812D01*
X001757Y009806D01*
X001737Y009804D01*
X001717Y009806D01*
X001699Y009812D01*
X001681Y009821D01*
X001666Y009833D01*
X001653Y009848D01*
X001644Y009866D01*
X001638Y009884D01*
X001636Y009904D01*
X001637Y009904D01*
X001639Y009885D01*
X001645Y009866D01*
X001654Y009849D01*
X001667Y009834D01*
X001682Y009822D01*
X001699Y009813D01*
X001718Y009807D01*
X001737Y009805D01*
X001756Y009807D01*
X001775Y009813D01*
X001792Y009822D01*
X001807Y009834D01*
X001820Y009849D01*
X001829Y009866D01*
X001835Y009885D01*
X001837Y009904D01*
D31*
X001874Y009275D03*
D32*
X001835Y009354D03*
D33*
X001904Y009368D03*
D34*
X001599Y009304D03*
D35*
X001737Y009398D03*
D36*
X001874Y009816D03*
X001599Y009816D03*
D37*
X001737Y009762D03*
D38*
X001825Y009816D03*
X001648Y009816D03*
D39*
X001737Y009531D03*
D40*
X009110Y009797D03*
X011090Y008797D03*
X011090Y010797D03*
D41*
X015514Y005610D03*
X015514Y005550D03*
X015514Y005490D03*
X015514Y004890D03*
X015514Y004830D03*
X015514Y004770D03*
X015514Y004710D03*
X015514Y004650D03*
X015514Y004590D03*
X015514Y004530D03*
X015094Y003870D03*
X015094Y003810D03*
X015094Y003750D03*
X015094Y003690D03*
X014794Y003390D03*
X014794Y003330D03*
X014794Y003270D03*
X015094Y003090D03*
X015094Y003030D03*
X015094Y002970D03*
X014494Y003450D03*
X016294Y003450D03*
X016774Y003690D03*
X016774Y003750D03*
X016774Y003810D03*
X016774Y003870D03*
X016774Y003930D03*
X016774Y003990D03*
X016774Y004050D03*
X016774Y004110D03*
X016774Y004170D03*
X016774Y004410D03*
X016774Y004470D03*
X016774Y004530D03*
X016774Y004590D03*
X016774Y004650D03*
X016774Y004710D03*
X016774Y004770D03*
X016774Y004830D03*
X016774Y004890D03*
X016234Y005190D03*
X016234Y005250D03*
X016234Y005310D03*
X016774Y005490D03*
X016774Y005550D03*
X016774Y005610D03*
X018574Y004350D03*
X018574Y004290D03*
X018574Y004230D03*
X016774Y003090D03*
X016774Y003030D03*
X016774Y002970D03*
D42*
X016294Y003150D03*
X017494Y003270D03*
X017494Y003330D03*
X017494Y003390D03*
X017494Y003450D03*
X017494Y003510D03*
X017494Y003570D03*
X017494Y004950D03*
X017494Y005010D03*
X017494Y005070D03*
X017494Y005130D03*
X017494Y005190D03*
X017494Y005250D03*
X017494Y005310D03*
X014854Y005310D03*
X014854Y005250D03*
X014854Y005190D03*
X014854Y005130D03*
X014854Y005070D03*
X014854Y005010D03*
X014494Y003150D03*
D43*
X015154Y003150D03*
X015094Y003930D03*
X015154Y003990D03*
X016594Y005070D03*
D44*
X016564Y005010D03*
X016984Y005430D03*
X015124Y004050D03*
X016984Y003150D03*
D45*
X017464Y003210D03*
X016264Y003210D03*
X016264Y003270D03*
X016264Y003330D03*
X016264Y003390D03*
X014464Y003390D03*
X014464Y003330D03*
X014464Y003270D03*
X014464Y003210D03*
X014884Y005370D03*
X017464Y005370D03*
D46*
X016264Y005130D03*
X016204Y005370D03*
X014764Y003450D03*
X014824Y003210D03*
D47*
X016744Y003450D03*
X016804Y003210D03*
X016744Y005130D03*
X016804Y005370D03*
D48*
X016774Y005310D03*
X016774Y005250D03*
X016774Y005190D03*
X016774Y003390D03*
X016774Y003330D03*
X016774Y003270D03*
X014674Y003570D03*
D49*
X014644Y003510D03*
D50*
X016624Y003510D03*
X016624Y003570D03*
D51*
X015064Y003630D03*
D52*
X016654Y003630D03*
D53*
X014404Y003930D03*
X014404Y004050D03*
D54*
X014374Y003990D03*
D55*
X016504Y004230D03*
X016504Y004290D03*
X016504Y004350D03*
D56*
X016174Y004950D03*
D57*
X015604Y005430D03*
M02*
