G75*
%MOIN*%
%OFA0B0*%
%FSLAX24Y24*%
%IPPOS*%
%LPD*%
%AMOC8*
5,1,8,0,0,1.08239X$1,22.5*
%
%ADD10C,0.0000*%
%ADD11C,0.0060*%
%ADD12C,0.0110*%
%ADD13R,0.0150X0.0050*%
%ADD14R,0.0050X0.0050*%
%ADD15R,0.0750X0.0050*%
%ADD16R,0.0800X0.0050*%
%ADD17R,0.0100X0.0050*%
%ADD18R,0.0200X0.0050*%
%ADD19R,0.0500X0.0050*%
%ADD20R,0.0450X0.0050*%
%ADD21R,0.0400X0.0050*%
%ADD22R,0.0700X0.0050*%
%ADD23R,0.1000X0.0050*%
%ADD24R,0.0650X0.0050*%
%ADD25R,0.0300X0.0050*%
%ADD26R,0.0250X0.0050*%
%ADD27R,0.5950X0.0050*%
%ADD28R,0.7900X0.0050*%
%ADD29R,0.1050X0.0050*%
%ADD30R,0.1200X0.0050*%
D10*
X000637Y001594D02*
X000637Y018096D01*
X000639Y018174D01*
X000645Y018251D01*
X000654Y018328D01*
X000667Y018404D01*
X000684Y018480D01*
X000705Y018555D01*
X000729Y018628D01*
X000757Y018701D01*
X000789Y018772D01*
X000824Y018841D01*
X000862Y018908D01*
X000903Y018974D01*
X000948Y019037D01*
X000996Y019098D01*
X001046Y019157D01*
X001100Y019213D01*
X001156Y019267D01*
X001215Y019317D01*
X001276Y019365D01*
X001339Y019410D01*
X001405Y019451D01*
X001472Y019489D01*
X001541Y019524D01*
X001612Y019556D01*
X001685Y019584D01*
X001758Y019608D01*
X001833Y019629D01*
X001909Y019646D01*
X001985Y019659D01*
X002062Y019668D01*
X002139Y019674D01*
X002217Y019676D01*
X018684Y019676D01*
X018756Y019674D01*
X018827Y019668D01*
X018898Y019659D01*
X018968Y019645D01*
X019038Y019628D01*
X019106Y019607D01*
X019174Y019582D01*
X019240Y019554D01*
X019304Y019522D01*
X019366Y019487D01*
X019426Y019448D01*
X019485Y019406D01*
X019540Y019361D01*
X019594Y019313D01*
X019644Y019263D01*
X019692Y019209D01*
X019737Y019154D01*
X019779Y019095D01*
X019818Y019035D01*
X019853Y018973D01*
X019885Y018909D01*
X019913Y018843D01*
X019938Y018775D01*
X019959Y018707D01*
X019976Y018637D01*
X019990Y018567D01*
X019999Y018496D01*
X020005Y018425D01*
X020007Y018353D01*
X020007Y001246D01*
X020006Y001246D02*
X020004Y001182D01*
X019998Y001118D01*
X019989Y001054D01*
X019975Y000991D01*
X019958Y000929D01*
X019937Y000868D01*
X019912Y000808D01*
X019884Y000751D01*
X019852Y000695D01*
X019817Y000640D01*
X019779Y000589D01*
X019738Y000539D01*
X019694Y000492D01*
X019647Y000448D01*
X019597Y000407D01*
X019546Y000369D01*
X019491Y000334D01*
X019435Y000302D01*
X019378Y000274D01*
X019318Y000249D01*
X019257Y000228D01*
X019195Y000211D01*
X019132Y000197D01*
X019068Y000188D01*
X019004Y000182D01*
X018940Y000180D01*
X002051Y000180D01*
X001977Y000182D01*
X001903Y000188D01*
X001830Y000197D01*
X001757Y000211D01*
X001685Y000228D01*
X001614Y000249D01*
X001544Y000274D01*
X001476Y000302D01*
X001409Y000334D01*
X001344Y000369D01*
X001281Y000408D01*
X001220Y000450D01*
X001161Y000495D01*
X001105Y000543D01*
X001051Y000594D01*
X001000Y000648D01*
X000952Y000704D01*
X000907Y000763D01*
X000865Y000824D01*
X000826Y000887D01*
X000791Y000952D01*
X000759Y001019D01*
X000731Y001087D01*
X000706Y001157D01*
X000685Y001228D01*
X000668Y001300D01*
X000654Y001373D01*
X000645Y001446D01*
X000639Y001520D01*
X000637Y001594D01*
D11*
X003623Y001296D02*
X003623Y001002D01*
X003623Y001222D02*
X003916Y001222D01*
X003916Y001296D02*
X003770Y001442D01*
X003623Y001296D01*
X003916Y001296D02*
X003916Y001002D01*
X004083Y001222D02*
X004157Y001149D01*
X004377Y001149D01*
X004377Y001002D02*
X004377Y001442D01*
X004157Y001442D01*
X004083Y001369D01*
X004083Y001222D01*
X004544Y001149D02*
X004544Y001075D01*
X004617Y001002D01*
X004764Y001002D01*
X004837Y001075D01*
X004764Y001222D02*
X004617Y001222D01*
X004544Y001149D01*
X004544Y001369D02*
X004617Y001442D01*
X004764Y001442D01*
X004837Y001369D01*
X004837Y001296D01*
X004764Y001222D01*
X005004Y001296D02*
X005297Y001002D01*
X005004Y001002D01*
X005004Y001296D02*
X005297Y001296D01*
X005458Y001296D02*
X005604Y001296D01*
X005531Y001369D02*
X005531Y001075D01*
X005458Y001002D01*
X005765Y001002D02*
X005911Y001002D01*
X005838Y001002D02*
X005838Y001296D01*
X005911Y001296D01*
X005838Y001442D02*
X005838Y001516D01*
X006078Y001442D02*
X006372Y001442D01*
X006372Y001002D01*
X006372Y001222D02*
X006225Y001222D01*
X006539Y001442D02*
X006832Y001002D01*
X006999Y001002D02*
X007293Y001002D01*
X006999Y001296D01*
X007293Y001296D01*
X007453Y001296D02*
X007599Y001296D01*
X007526Y001369D02*
X007526Y001075D01*
X007453Y001002D01*
X007760Y001002D02*
X007906Y001002D01*
X007833Y001002D02*
X007833Y001296D01*
X007906Y001296D01*
X007833Y001442D02*
X007833Y001516D01*
X008067Y001442D02*
X008140Y001369D01*
X008140Y001002D01*
X008213Y001222D02*
X008067Y001222D01*
X008380Y001296D02*
X008380Y000929D01*
X008454Y000855D01*
X008527Y000855D01*
X008600Y001002D02*
X008380Y001002D01*
X008600Y001002D02*
X008674Y001075D01*
X008674Y001296D01*
X008907Y001442D02*
X008907Y001002D01*
X008834Y001002D02*
X008981Y001002D01*
X009147Y001149D02*
X009147Y001222D01*
X009221Y001296D01*
X009368Y001296D01*
X009441Y001222D01*
X009441Y001075D01*
X009368Y001002D01*
X009221Y001002D01*
X009147Y001149D02*
X009441Y001149D01*
X009604Y001296D02*
X009678Y001296D01*
X009825Y001149D01*
X009825Y001002D02*
X009825Y001296D01*
X009991Y001296D02*
X009991Y001002D01*
X010212Y001002D01*
X010285Y001075D01*
X010285Y001296D01*
X010452Y001296D02*
X010672Y001296D01*
X010745Y001222D01*
X010745Y001075D01*
X010672Y001002D01*
X010452Y001002D01*
X010912Y001149D02*
X011206Y001149D01*
X011206Y001222D02*
X011206Y001075D01*
X011132Y001002D01*
X010986Y001002D01*
X010912Y001149D02*
X010912Y001222D01*
X010986Y001296D01*
X011132Y001296D01*
X011206Y001222D01*
X011373Y001296D02*
X011593Y001296D01*
X011666Y001222D01*
X011593Y001149D01*
X011446Y001149D01*
X011373Y001075D01*
X011446Y001002D01*
X011666Y001002D01*
X012127Y001002D02*
X011833Y001442D01*
X011705Y001884D02*
X011705Y002324D01*
X011484Y002324D01*
X011411Y002251D01*
X011411Y002104D01*
X011484Y002031D01*
X011705Y002031D01*
X012332Y002031D02*
X012625Y002031D01*
X012625Y002104D02*
X012552Y002178D01*
X012405Y002178D01*
X012332Y002104D01*
X012332Y002031D01*
X012405Y001884D02*
X012552Y001884D01*
X012625Y001957D01*
X012625Y002104D01*
X012786Y001884D02*
X012932Y001884D01*
X012859Y001884D02*
X012859Y002324D01*
X012932Y002324D01*
X013099Y002104D02*
X013099Y001957D01*
X013173Y001884D01*
X013393Y001884D01*
X013393Y001737D02*
X013393Y002178D01*
X013173Y002178D01*
X013099Y002104D01*
X013560Y002104D02*
X013560Y001884D01*
X013706Y001884D02*
X013706Y002104D01*
X013633Y002178D01*
X013560Y002104D01*
X013706Y002104D02*
X013780Y002178D01*
X013853Y002178D01*
X013853Y001884D01*
X014013Y001884D02*
X014160Y001884D01*
X014087Y001884D02*
X014087Y002178D01*
X014160Y002178D01*
X014087Y002324D02*
X014087Y002398D01*
X014327Y002251D02*
X014400Y002324D01*
X014547Y002324D01*
X014620Y002251D01*
X014620Y002178D01*
X014547Y002104D01*
X014400Y002104D01*
X014327Y002031D01*
X014327Y001957D01*
X014400Y001884D01*
X014547Y001884D01*
X014620Y001957D01*
X014198Y001442D02*
X014198Y001002D01*
X013978Y001002D01*
X013905Y001075D01*
X013905Y001222D01*
X013978Y001296D01*
X014198Y001296D01*
X014365Y001296D02*
X014365Y001002D01*
X014585Y001002D01*
X014659Y001075D01*
X014659Y001296D01*
X014826Y001222D02*
X014826Y001002D01*
X014826Y001222D02*
X014899Y001296D01*
X015046Y001296D01*
X015119Y001222D01*
X015279Y001296D02*
X015426Y001296D01*
X015353Y001369D02*
X015353Y001075D01*
X015279Y001002D01*
X015119Y001002D02*
X015119Y001442D01*
X015321Y001884D02*
X015248Y001957D01*
X015321Y002031D01*
X015468Y002031D01*
X015541Y002104D01*
X015468Y002178D01*
X015248Y002178D01*
X015321Y001884D02*
X015541Y001884D01*
X015771Y002178D02*
X015698Y002251D01*
X015698Y002398D01*
X015938Y002178D02*
X016232Y001884D01*
X015938Y001884D01*
X015938Y002178D02*
X016232Y002178D01*
X016392Y002178D02*
X016539Y002178D01*
X016465Y002251D02*
X016465Y001957D01*
X016392Y001884D01*
X016699Y001884D02*
X016846Y001884D01*
X016772Y001884D02*
X016772Y002178D01*
X016846Y002178D01*
X016772Y002324D02*
X016772Y002398D01*
X017012Y002324D02*
X017306Y002324D01*
X017306Y001884D01*
X017306Y002104D02*
X017159Y002104D01*
X016821Y001442D02*
X017114Y001002D01*
X017271Y001002D02*
X017344Y001002D01*
X017344Y001075D01*
X017271Y001075D01*
X017271Y001002D01*
X017271Y001222D02*
X017344Y001222D01*
X017344Y001296D01*
X017271Y001296D01*
X017271Y001222D01*
X017511Y001296D02*
X017731Y001296D01*
X017805Y001222D01*
X017731Y001149D01*
X017585Y001149D01*
X017511Y001075D01*
X017585Y001002D01*
X017805Y001002D01*
X017972Y001075D02*
X018045Y001002D01*
X018265Y001002D01*
X018265Y000855D02*
X018265Y001296D01*
X018045Y001296D01*
X017972Y001222D01*
X017972Y001075D01*
X018425Y001002D02*
X018499Y001075D01*
X018499Y001369D01*
X018572Y001296D02*
X018425Y001296D01*
X018732Y001296D02*
X018879Y001296D01*
X018806Y001369D02*
X018806Y001075D01*
X018732Y001002D01*
X019046Y001002D02*
X019046Y001222D01*
X019119Y001296D01*
X019266Y001296D01*
X019339Y001222D01*
X019339Y001442D02*
X019339Y001002D01*
X019074Y001884D02*
X019001Y001884D01*
X018927Y001957D01*
X018927Y002324D01*
X018854Y002324D02*
X019001Y002324D01*
X018687Y002104D02*
X018687Y001957D01*
X018614Y001884D01*
X018467Y001884D01*
X018394Y001957D01*
X018394Y002104D01*
X018467Y002178D01*
X018614Y002178D01*
X018687Y002104D01*
X019074Y001884D02*
X019148Y001957D01*
X018227Y001957D02*
X018227Y002104D01*
X018153Y002178D01*
X018007Y002178D01*
X017933Y002104D01*
X017933Y002031D01*
X018227Y002031D01*
X018227Y001957D02*
X018153Y001884D01*
X018007Y001884D01*
X016654Y001002D02*
X016360Y001442D01*
X016193Y001222D02*
X016193Y001075D01*
X016120Y001002D01*
X015900Y001002D01*
X015900Y000929D02*
X015900Y001296D01*
X016120Y001296D01*
X016193Y001222D01*
X016047Y000855D02*
X015973Y000855D01*
X015900Y000929D01*
X015733Y001002D02*
X015586Y001002D01*
X015660Y001002D02*
X015660Y001296D01*
X015733Y001296D01*
X015660Y001442D02*
X015660Y001516D01*
X013738Y001075D02*
X013665Y001075D01*
X013665Y001002D01*
X013738Y001002D01*
X013738Y001075D01*
X013508Y001075D02*
X013508Y001222D01*
X013434Y001296D01*
X013214Y001296D01*
X013047Y001222D02*
X013047Y001075D01*
X012974Y001002D01*
X012827Y001002D01*
X012754Y001075D01*
X012754Y001222D01*
X012827Y001296D01*
X012974Y001296D01*
X013047Y001222D01*
X013214Y001002D02*
X013434Y001002D01*
X013508Y001075D01*
X012587Y001002D02*
X012587Y001296D01*
X012514Y001296D01*
X012440Y001222D01*
X012367Y001296D01*
X012293Y001222D01*
X012293Y001002D01*
X012440Y001002D02*
X012440Y001222D01*
X011244Y001957D02*
X011171Y001884D01*
X011024Y001884D01*
X010951Y001957D01*
X010951Y002104D01*
X011024Y002178D01*
X011171Y002178D01*
X011244Y002104D01*
X011244Y001957D01*
X010784Y001957D02*
X010710Y001884D01*
X010637Y001957D01*
X010564Y001884D01*
X010490Y001957D01*
X010490Y002178D01*
X010323Y002104D02*
X010323Y001957D01*
X010250Y001884D01*
X010103Y001884D01*
X010030Y002031D02*
X010323Y002031D01*
X010323Y002104D02*
X010250Y002178D01*
X010103Y002178D01*
X010030Y002104D01*
X010030Y002031D01*
X009863Y002031D02*
X009716Y002178D01*
X009643Y002178D01*
X009863Y002178D02*
X009863Y001884D01*
X009019Y001884D02*
X009019Y002178D01*
X008872Y002324D01*
X008725Y002178D01*
X008725Y001884D01*
X008559Y001884D02*
X008559Y002178D01*
X008338Y002178D01*
X008265Y002104D01*
X008265Y001884D01*
X008098Y001957D02*
X008025Y002031D01*
X007805Y002031D01*
X007805Y002104D02*
X007805Y001884D01*
X008025Y001884D01*
X008098Y001957D01*
X008025Y002178D02*
X007878Y002178D01*
X007805Y002104D01*
X007638Y001884D02*
X007491Y001884D01*
X007564Y001884D02*
X007564Y002324D01*
X007638Y002324D01*
X007331Y002178D02*
X007331Y001957D01*
X007257Y001884D01*
X007037Y001884D01*
X007037Y001811D02*
X007111Y001737D01*
X007184Y001737D01*
X007037Y001811D02*
X007037Y002178D01*
X006870Y002104D02*
X006797Y002178D01*
X006577Y002178D01*
X006650Y002031D02*
X006797Y002031D01*
X006870Y002104D01*
X006870Y001884D02*
X006650Y001884D01*
X006577Y001957D01*
X006650Y002031D01*
X006410Y002178D02*
X006337Y002178D01*
X006337Y001884D01*
X006410Y001884D02*
X006263Y001884D01*
X006103Y001884D02*
X005883Y001884D01*
X005810Y001957D01*
X005883Y002031D01*
X006030Y002031D01*
X006103Y002104D01*
X006030Y002178D01*
X005810Y002178D01*
X006337Y002324D02*
X006337Y002398D01*
X005182Y002178D02*
X005036Y002178D01*
X005109Y002251D02*
X005109Y001957D01*
X005036Y001884D01*
X004875Y001957D02*
X004875Y002104D01*
X004802Y002178D01*
X004655Y002178D01*
X004582Y002104D01*
X004582Y001957D01*
X004655Y001884D01*
X004802Y001884D01*
X004875Y001957D01*
X004415Y001957D02*
X004342Y001884D01*
X004195Y001884D01*
X004121Y001957D01*
X004121Y002104D01*
X004195Y002178D01*
X004342Y002178D01*
X004415Y002104D01*
X004415Y001957D01*
X003955Y001884D02*
X003808Y001884D01*
X003881Y001884D02*
X003881Y002324D01*
X003955Y002324D01*
X008725Y002104D02*
X009019Y002104D01*
X008981Y001442D02*
X008907Y001442D01*
X010784Y001957D02*
X010784Y002178D01*
D12*
X010820Y008245D02*
X010820Y008343D01*
X010427Y008737D01*
X010427Y008836D01*
X010820Y008836D01*
X011071Y008737D02*
X011071Y008639D01*
X011170Y008540D01*
X011071Y008442D01*
X011071Y008343D01*
X011170Y008245D01*
X011366Y008245D01*
X011465Y008343D01*
X011689Y008343D02*
X011689Y008245D01*
X011787Y008245D01*
X011787Y008343D01*
X011689Y008343D01*
X011268Y008540D02*
X011170Y008540D01*
X011071Y008737D02*
X011170Y008836D01*
X011366Y008836D01*
X011465Y008737D01*
X011555Y009295D02*
X011850Y009295D01*
X011948Y009393D01*
X011948Y009590D01*
X011850Y009689D01*
X011555Y009689D01*
X011304Y009689D02*
X011304Y009393D01*
X011205Y009295D01*
X010910Y009295D01*
X010910Y009689D01*
X010659Y009689D02*
X010659Y009295D01*
X010659Y009492D02*
X010462Y009689D01*
X010364Y009689D01*
X010122Y009590D02*
X010122Y009393D01*
X010024Y009295D01*
X009827Y009295D01*
X009728Y009492D02*
X010122Y009492D01*
X010122Y009590D02*
X010024Y009689D01*
X009827Y009689D01*
X009728Y009590D01*
X009728Y009492D01*
X009477Y009295D02*
X009281Y009295D01*
X009379Y009295D02*
X009379Y009886D01*
X009477Y009886D01*
X009558Y010148D02*
X009460Y010247D01*
X009460Y010739D01*
X009755Y010739D01*
X009853Y010640D01*
X009853Y010443D01*
X009755Y010345D01*
X009460Y010345D01*
X009558Y010148D02*
X009657Y010148D01*
X010104Y010345D02*
X010104Y010640D01*
X010203Y010739D01*
X010498Y010739D01*
X010498Y010345D01*
X010731Y010345D02*
X010928Y010345D01*
X010829Y010345D02*
X010829Y010739D01*
X010928Y010739D01*
X010829Y010936D02*
X010829Y011034D01*
X010623Y011395D02*
X010722Y011493D01*
X010722Y011887D01*
X010820Y011789D02*
X010623Y011789D01*
X010391Y011789D02*
X009997Y011789D01*
X010391Y011395D01*
X009997Y011395D01*
X009746Y011395D02*
X009746Y011986D01*
X009451Y011986D01*
X009352Y011887D01*
X009352Y011690D01*
X009451Y011592D01*
X009746Y011592D01*
X009101Y011493D02*
X009003Y011592D01*
X008708Y011592D01*
X008708Y011690D02*
X008708Y011395D01*
X009003Y011395D01*
X009101Y011493D01*
X009003Y011789D02*
X008806Y011789D01*
X008708Y011690D01*
X008457Y011789D02*
X008260Y011789D01*
X008358Y011887D02*
X008358Y011493D01*
X008260Y011395D01*
X008027Y011395D02*
X008027Y011789D01*
X008027Y011592D02*
X007830Y011789D01*
X007732Y011789D01*
X007490Y011789D02*
X007392Y011789D01*
X007392Y011395D01*
X007490Y011395D02*
X007293Y011395D01*
X007060Y011493D02*
X007060Y011690D01*
X006962Y011789D01*
X006667Y011789D01*
X006416Y011986D02*
X006416Y011395D01*
X006416Y011592D02*
X006121Y011789D01*
X006416Y011592D02*
X006121Y011395D01*
X006667Y011395D02*
X006962Y011395D01*
X007060Y011493D01*
X006989Y010936D02*
X006989Y010345D01*
X007284Y010345D01*
X007383Y010443D01*
X007383Y010640D01*
X007284Y010739D01*
X006989Y010739D01*
X006738Y010739D02*
X006738Y010443D01*
X006640Y010345D01*
X006541Y010443D01*
X006443Y010345D01*
X006344Y010443D01*
X006344Y010739D01*
X006094Y010443D02*
X005995Y010542D01*
X005700Y010542D01*
X005700Y010640D02*
X005700Y010345D01*
X005995Y010345D01*
X006094Y010443D01*
X005995Y010739D02*
X005798Y010739D01*
X005700Y010640D01*
X005449Y010542D02*
X005252Y010739D01*
X005154Y010739D01*
X004912Y010640D02*
X004912Y010443D01*
X004813Y010345D01*
X004617Y010345D01*
X004518Y010542D02*
X004912Y010542D01*
X004912Y010640D02*
X004813Y010739D01*
X004617Y010739D01*
X004518Y010640D01*
X004518Y010542D01*
X004267Y010443D02*
X004267Y010345D01*
X004169Y010345D01*
X004169Y010443D01*
X004267Y010443D01*
X003945Y010443D02*
X003945Y010640D01*
X003847Y010739D01*
X003551Y010739D01*
X003300Y010640D02*
X003300Y010443D01*
X003202Y010345D01*
X003005Y010345D01*
X002907Y010443D01*
X002907Y010640D01*
X003005Y010739D01*
X003202Y010739D01*
X003300Y010640D01*
X003551Y010345D02*
X003847Y010345D01*
X003945Y010443D01*
X002656Y010345D02*
X002656Y010739D01*
X002558Y010739D01*
X002459Y010640D01*
X002361Y010739D01*
X002262Y010640D01*
X002262Y010345D01*
X002459Y010345D02*
X002459Y010640D01*
X005449Y010739D02*
X005449Y010345D01*
X006720Y009689D02*
X007114Y009295D01*
X006720Y009295D01*
X006720Y009689D02*
X007114Y009689D01*
X007347Y009689D02*
X007544Y009689D01*
X007445Y009787D02*
X007445Y009393D01*
X007347Y009295D01*
X007777Y009295D02*
X007973Y009295D01*
X007875Y009295D02*
X007875Y009689D01*
X007973Y009689D01*
X007875Y009886D02*
X007875Y009984D01*
X008206Y009886D02*
X008305Y009787D01*
X008305Y009295D01*
X008654Y009295D02*
X008949Y009295D01*
X009048Y009393D01*
X009048Y009689D01*
X008654Y009689D02*
X008654Y009197D01*
X008752Y009098D01*
X008851Y009098D01*
X008914Y008836D02*
X009209Y008540D01*
X008815Y008540D01*
X008564Y008442D02*
X008564Y008343D01*
X008466Y008245D01*
X008269Y008245D01*
X008171Y008343D01*
X008171Y008442D01*
X008269Y008540D01*
X008466Y008540D01*
X008564Y008639D01*
X008564Y008737D01*
X008466Y008836D01*
X008269Y008836D01*
X008171Y008737D01*
X008171Y008639D01*
X008269Y008540D01*
X008466Y008540D02*
X008564Y008442D01*
X008914Y008245D02*
X008914Y008836D01*
X009433Y008343D02*
X009433Y008245D01*
X009531Y008245D01*
X009531Y008343D01*
X009433Y008343D01*
X009782Y008343D02*
X009880Y008245D01*
X010077Y008245D01*
X010176Y008343D01*
X009979Y008540D02*
X009880Y008540D01*
X009782Y008442D01*
X009782Y008343D01*
X009880Y008540D02*
X009782Y008639D01*
X009782Y008737D01*
X009880Y008836D01*
X010077Y008836D01*
X010176Y008737D01*
X009209Y010345D02*
X009209Y010936D01*
X009110Y010739D02*
X008914Y010739D01*
X008815Y010640D01*
X008815Y010345D01*
X008564Y010443D02*
X008466Y010542D01*
X008171Y010542D01*
X008171Y010640D02*
X008171Y010345D01*
X008466Y010345D01*
X008564Y010443D01*
X008466Y010739D02*
X008269Y010739D01*
X008171Y010640D01*
X007920Y010542D02*
X007723Y010739D01*
X007625Y010739D01*
X007920Y010739D02*
X007920Y010345D01*
X008206Y009590D02*
X008403Y009590D01*
X007821Y008836D02*
X007624Y008836D01*
X007526Y008737D01*
X007526Y008343D01*
X007624Y008245D01*
X007821Y008245D01*
X007920Y008343D01*
X007821Y008540D02*
X007526Y008540D01*
X007275Y008737D02*
X007177Y008836D01*
X006980Y008836D01*
X006882Y008737D01*
X006882Y008639D01*
X007275Y008245D01*
X006882Y008245D01*
X007821Y008540D02*
X007920Y008639D01*
X007920Y008737D01*
X007821Y008836D01*
X009209Y010640D02*
X009110Y010739D01*
X007392Y011986D02*
X007392Y012084D01*
X011053Y011395D02*
X011250Y011395D01*
X011152Y011395D02*
X011152Y011789D01*
X011250Y011789D01*
X011152Y011986D02*
X011152Y012084D01*
X011501Y011986D02*
X011894Y011986D01*
X011894Y011395D01*
X011894Y011690D02*
X011698Y011690D01*
X011716Y010739D02*
X011716Y010345D01*
X012011Y010345D01*
X012109Y010443D01*
X012109Y010739D01*
X012360Y010739D02*
X012655Y010739D01*
X012754Y010640D01*
X012754Y010443D01*
X012655Y010345D01*
X012360Y010345D01*
X012297Y009689D02*
X012199Y009590D01*
X012199Y009492D01*
X012593Y009492D01*
X012593Y009590D02*
X012593Y009393D01*
X012494Y009295D01*
X012297Y009295D01*
X012297Y009689D02*
X012494Y009689D01*
X012593Y009590D01*
X012844Y009689D02*
X013139Y009689D01*
X013237Y009590D01*
X013139Y009492D01*
X012942Y009492D01*
X012844Y009393D01*
X012942Y009295D01*
X013237Y009295D01*
X013488Y009393D02*
X013587Y009295D01*
X013783Y009295D01*
X013882Y009393D01*
X013882Y009787D01*
X013783Y009886D01*
X013587Y009886D01*
X013488Y009787D01*
X013488Y009590D01*
X013587Y009492D01*
X013587Y009689D01*
X013783Y009689D01*
X013783Y009492D01*
X013587Y009492D01*
X013622Y008836D02*
X013425Y008836D01*
X013327Y008737D01*
X013327Y008639D01*
X013721Y008245D01*
X013327Y008245D01*
X013076Y008245D02*
X012682Y008245D01*
X012879Y008245D02*
X012879Y008836D01*
X013076Y008639D01*
X013622Y008836D02*
X013721Y008737D01*
X012432Y008737D02*
X012333Y008836D01*
X012136Y008836D01*
X012038Y008737D01*
X012038Y008639D01*
X012136Y008540D01*
X012038Y008442D01*
X012038Y008343D01*
X012136Y008245D01*
X012333Y008245D01*
X012432Y008343D01*
X012235Y008540D02*
X012136Y008540D01*
X011465Y010345D02*
X011465Y010739D01*
X011268Y010739D02*
X011170Y010739D01*
X011268Y010739D02*
X011465Y010542D01*
X012888Y011395D02*
X013085Y011395D01*
X013184Y011493D01*
X013184Y011690D01*
X013085Y011789D01*
X012888Y011789D01*
X012790Y011690D01*
X012790Y011592D01*
X013184Y011592D01*
X013434Y011493D02*
X013434Y011690D01*
X013533Y011789D01*
X013730Y011789D01*
X013828Y011690D01*
X013828Y011493D01*
X013730Y011395D01*
X013533Y011395D01*
X013434Y011493D01*
X014079Y011986D02*
X014276Y011986D01*
X014177Y011986D02*
X014177Y011493D01*
X014276Y011395D01*
X014374Y011395D01*
X014473Y011493D01*
X014392Y010936D02*
X014294Y010837D01*
X014294Y010640D01*
X014392Y010542D01*
X014392Y010739D01*
X014589Y010739D01*
X014589Y010542D01*
X014392Y010542D01*
X014294Y010443D02*
X014392Y010345D01*
X014589Y010345D01*
X014688Y010443D01*
X014688Y010837D01*
X014589Y010936D01*
X014392Y010936D01*
X014043Y010640D02*
X013945Y010542D01*
X013748Y010542D01*
X013649Y010443D01*
X013748Y010345D01*
X014043Y010345D01*
X014043Y010640D02*
X013945Y010739D01*
X013649Y010739D01*
X013398Y010640D02*
X013398Y010443D01*
X013300Y010345D01*
X013103Y010345D01*
X013005Y010542D02*
X013398Y010542D01*
X013398Y010640D02*
X013300Y010739D01*
X013103Y010739D01*
X013005Y010640D01*
X013005Y010542D01*
X014938Y010739D02*
X015332Y010345D01*
X014938Y010345D01*
X014938Y010739D02*
X015332Y010739D01*
X015565Y010739D02*
X015762Y010739D01*
X015663Y010837D02*
X015663Y010443D01*
X015565Y010345D01*
X015995Y010345D02*
X016191Y010345D01*
X016093Y010345D02*
X016093Y010739D01*
X016191Y010739D01*
X016093Y010936D02*
X016093Y011034D01*
X016424Y010936D02*
X016523Y010837D01*
X016523Y010345D01*
X016872Y010542D02*
X017266Y010542D01*
X017266Y010640D02*
X017266Y010443D01*
X017167Y010345D01*
X016970Y010345D01*
X016872Y010542D02*
X016872Y010640D01*
X016970Y010739D01*
X017167Y010739D01*
X017266Y010640D01*
X017517Y010640D02*
X017517Y010443D01*
X017615Y010345D01*
X017812Y010345D01*
X017910Y010443D01*
X017910Y010640D01*
X017812Y010739D01*
X017615Y010739D01*
X017517Y010640D01*
X018143Y010739D02*
X018143Y010247D01*
X018242Y010148D01*
X018340Y010148D01*
X018143Y010936D02*
X018143Y011034D01*
X016621Y010640D02*
X016424Y010640D01*
D13*
X018624Y014448D03*
X018624Y014498D03*
X018624Y014548D03*
X018874Y014698D03*
X018874Y014748D03*
X018874Y014798D03*
X019124Y014848D03*
X018624Y015048D03*
X018624Y015098D03*
X018624Y015148D03*
X018624Y015198D03*
X018274Y015748D03*
X018274Y015798D03*
X018274Y015848D03*
X018274Y015898D03*
X018274Y015948D03*
X018274Y015998D03*
X018274Y016048D03*
X018274Y016548D03*
X018274Y016598D03*
X018274Y016648D03*
X017674Y016398D03*
X017674Y016348D03*
X017674Y016298D03*
X017424Y016248D03*
X012274Y016248D03*
X011874Y016048D03*
X011874Y015998D03*
X011874Y015948D03*
X011874Y015898D03*
X011874Y015848D03*
X011874Y015798D03*
X011874Y015748D03*
X011874Y015698D03*
X011874Y015648D03*
X011874Y015448D03*
X011874Y015398D03*
X011874Y015348D03*
X011874Y015298D03*
X011874Y015248D03*
X011874Y015198D03*
X011874Y015148D03*
X011874Y015098D03*
X011874Y015048D03*
X012274Y014848D03*
X011874Y014548D03*
X011874Y014498D03*
X011874Y014448D03*
X011874Y016548D03*
X011874Y016598D03*
X011874Y016648D03*
D14*
X012274Y016498D03*
X011274Y016398D03*
X011274Y016348D03*
X011274Y016298D03*
X011274Y016248D03*
X011274Y016198D03*
X011274Y016148D03*
X011274Y016098D03*
X011274Y014948D03*
X011274Y014898D03*
X011274Y014848D03*
X011274Y014798D03*
X011274Y014748D03*
X011274Y014698D03*
X012274Y014598D03*
X017424Y016498D03*
X018824Y016398D03*
X018824Y016348D03*
X018824Y016298D03*
X018824Y016248D03*
X018824Y016198D03*
X018824Y016148D03*
X019124Y014598D03*
D15*
X018574Y014598D03*
X018624Y015248D03*
X018574Y015298D03*
D16*
X018599Y015348D03*
X011699Y014598D03*
X011699Y016498D03*
D17*
X011299Y016448D03*
X012299Y016448D03*
X012299Y016398D03*
X012299Y016348D03*
X012299Y016298D03*
X012299Y014798D03*
X012299Y014748D03*
X012299Y014698D03*
X012299Y014648D03*
X011299Y014648D03*
X017399Y016298D03*
X017399Y016348D03*
X017399Y016398D03*
X017399Y016448D03*
X018799Y016448D03*
X019149Y014798D03*
X019149Y014748D03*
X019149Y014698D03*
X019149Y014648D03*
D18*
X018899Y014848D03*
X018849Y014648D03*
X017649Y016248D03*
X017699Y016448D03*
D19*
X011899Y016248D03*
X011849Y016448D03*
X011899Y014848D03*
X011849Y014648D03*
D20*
X011874Y014698D03*
X011874Y014748D03*
X011874Y014798D03*
X011874Y016298D03*
X011874Y016348D03*
X011874Y016398D03*
X017574Y016148D03*
X018974Y014948D03*
D21*
X018999Y014898D03*
X017549Y016198D03*
D22*
X011999Y016198D03*
X011999Y016148D03*
X011999Y014948D03*
X011999Y014898D03*
D23*
X018649Y014998D03*
D24*
X011974Y014998D03*
X011974Y016098D03*
D25*
X019199Y015348D03*
X019199Y015248D03*
D26*
X019224Y015298D03*
D27*
X014774Y015498D03*
X014774Y015548D03*
X014774Y015598D03*
D28*
X006499Y015598D03*
X006499Y015548D03*
X006499Y015498D03*
D29*
X017924Y016098D03*
D30*
X018199Y016498D03*
M02*
